<svg xmlns="http://www.w3.org/2000/svg" viewBox="0 0 1440 900">
  <defs>
    <linearGradient id="spectrum" x1="110" y1="88" x2="1328" y2="812" gradientUnits="userSpaceOnUse">
      <stop offset="0" stop-color="#ff6b7a"/>
      <stop offset="0.5" stop-color="#5d8dff"/>
      <stop offset="1" stop-color="#b98cff"/>
    </linearGradient>
    <linearGradient id="wash" x1="0" y1="0" x2="1440" y2="900" gradientUnits="userSpaceOnUse">
      <stop offset="0" stop-color="#fff4f5"/>
      <stop offset="0.55" stop-color="#eef4ff"/>
      <stop offset="1" stop-color="#f8f1ff"/>
    </linearGradient>
    <style>
      text { font-family: "Space Grotesk", "Azeret Mono", "IBM Plex Sans", "Helvetica Neue", Arial, sans-serif; fill: #08090c; }
      .brand { font-size: 23px; font-weight: 900; letter-spacing: 5px; }
      .title { font-size: 54px; font-weight: 900; letter-spacing: -1px; }
      .label { font-size: 14px; font-weight: 850; letter-spacing: 4px; fill: #30323a; }
      .body { font-size: 23px; font-weight: 700; }
      .small { font-size: 15px; font-weight: 750; fill: #30323a; }
      .mono { font-family: "Azeret Mono", "IBM Plex Mono", Menlo, Consolas, monospace; font-size: 14px; font-weight: 760; }
    </style>
  </defs>

  <rect width="1440" height="900" fill="#ffffff"/>
  <rect x="44" y="42" width="1352" height="816" rx="36" fill="url(#wash)"/>
  <rect x="44" y="42" width="1352" height="816" rx="36" fill="none" stroke="#08090c" stroke-width="2"/>

  <rect x="78" y="74" width="1284" height="58" rx="20" fill="#ffffff" stroke="#08090c" stroke-width="2"/>
  <circle cx="116" cy="103" r="7" fill="#ff6b7a"/>
  <circle cx="140" cy="103" r="7" fill="#5d8dff"/>
  <circle cx="164" cy="103" r="7" fill="#b98cff"/>
  <text x="206" y="111" class="brand">DOPPLER</text>
  <text x="1218" y="109" text-anchor="end" class="mono">local WebGPU</text>

  <text x="110" y="210" class="title">Inference console</text>
  <text x="112" y="248" class="small">Backend-aware runtime view. No hidden lane switch.</text>

  <g transform="translate(1020 176)">
    <rect x="0" y="0" width="134" height="42" rx="21" fill="#08090c"/>
    <text x="67" y="27" text-anchor="middle" class="label" style="fill:#ffffff">METAL</text>
    <rect x="150" y="0" width="146" height="42" rx="21" fill="#ffffff" stroke="#08090c" stroke-width="2"/>
    <text x="223" y="27" text-anchor="middle" class="label">VULKAN</text>
  </g>

  <g transform="translate(110 302)">
    <rect x="0" y="0" width="372" height="168" rx="26" fill="#ffffff" stroke="#08090c" stroke-width="2"/>
    <text x="28" y="48" class="label">MODEL</text>
    <text x="28" y="90" class="body">Gemma local</text>
    <text x="28" y="126" class="small">RDRR + OPFS</text>
    <path d="M252 112c28-58 68-58 96 0" fill="none" stroke="#08090c" stroke-width="9" stroke-linecap="round"/>
    <path d="M252 112c28-58 68-58 96 0" fill="none" stroke="url(#spectrum)" stroke-width="4" stroke-linecap="round"/>
  </g>

  <g transform="translate(534 302)">
    <rect x="0" y="0" width="372" height="168" rx="26" fill="#08090c"/>
    <text x="28" y="48" class="label" style="fill:#ffffff">KERNEL</text>
    <text x="28" y="90" class="body" style="fill:#ffffff">WGSL path</text>
    <text x="28" y="126" class="small" style="fill:#f4f4f5">typed buffers</text>
    <rect x="250" y="42" width="70" height="70" rx="18" fill="#ffffff"/>
    <rect x="271" y="22" width="70" height="70" rx="18" fill="url(#spectrum)" opacity="0.78"/>
  </g>

  <g transform="translate(958 302)">
    <rect x="0" y="0" width="372" height="168" rx="26" fill="#ffffff" stroke="#08090c" stroke-width="2"/>
    <text x="28" y="48" class="label">TRACE</text>
    <text x="28" y="90" class="body">Receipts</text>
    <text x="28" y="126" class="small">shape + lane metadata</text>
    <circle cx="288" cy="76" r="34" fill="url(#spectrum)" opacity="0.86"/>
    <circle cx="288" cy="76" r="18" fill="#ffffff" stroke="#08090c" stroke-width="2"/>
  </g>

  <rect x="110" y="520" width="1220" height="96" rx="24" fill="#ffffff" stroke="#08090c" stroke-width="2"/>
  <text x="146" y="578" class="body">Explain the active kernel path for this prompt.</text>
  <rect x="1168" y="542" width="118" height="52" rx="26" fill="#08090c"/>
  <text x="1227" y="574" text-anchor="middle" class="label" style="fill:#ffffff">SEND</text>

  <rect x="110" y="654" width="1220" height="128" rx="26" fill="#ffffff" stroke="#08090c" stroke-width="2"/>
  <text x="146" y="700" class="label">BACKEND TRACE</text>
  <text x="146" y="740" class="body">WebGPU contract active: Metal and Vulkan stay separate lanes.</text>
  <path d="M146 760h440" stroke="url(#spectrum)" stroke-width="6" stroke-linecap="round"/>
</svg>
