<svg version="1.1" id="Layer_1" xmlns="http://www.w3.org/2000/svg" xmlns:xlink="http://www.w3.org/1999/xlink" x="0px" y="0px"
	 width="100%" viewBox="0 0 974 308" enable-background="new 0 0 974 308" xml:space="preserve">
<path fill="#FEFEFE" opacity="1.000000" stroke="none" 
	d="
M687.000000,309.000000 
	C458.000000,309.000000 229.500000,309.000000 1.000000,309.000000 
	C1.000000,206.333328 1.000000,103.666664 1.000000,1.000000 
	C325.666656,1.000000 650.333313,1.000000 975.000000,1.000000 
	C975.000000,103.666664 975.000000,206.333328 975.000000,309.000000 
	C879.166687,309.000000 783.333313,309.000000 687.000000,309.000000 
M761.723145,178.721176 
	C761.723145,178.721176 761.692932,178.715515 760.968567,178.786011 
	C754.332642,182.011780 747.696716,185.237549 740.259705,188.555954 
	C736.781067,189.218704 736.160156,191.236221 737.563599,195.020676 
	C737.687073,196.344238 737.810547,197.667786 737.786926,199.895477 
	C738.046936,203.671936 738.307007,207.448380 738.543823,212.052292 
	C738.676514,213.697235 738.809265,215.342178 738.883362,217.775177 
	C739.281311,217.935120 739.679321,218.095062 740.874573,218.296173 
	C746.918213,216.181458 752.961792,214.066727 759.749146,211.936798 
	C760.961487,211.271149 762.173828,210.605499 763.716736,209.399506 
	C763.620972,209.001205 763.525208,208.602905 763.690613,207.404190 
	C763.622437,199.202957 763.554260,191.001709 763.771484,182.160172 
	C763.673279,181.480728 763.575073,180.801285 763.678162,179.495392 
	C763.606628,179.288055 763.535095,179.080719 763.383972,178.179581 
	C762.829834,178.350159 762.275757,178.520737 761.723145,178.721176 
M703.103821,156.102066 
	C703.103821,156.102066 703.129089,156.198380 703.883118,156.220734 
	C705.323242,155.505569 706.763367,154.790405 708.616028,154.072998 
	C708.616028,154.072998 709.006409,153.939789 709.586670,154.046738 
	C709.794678,153.721298 710.002686,153.395844 710.943481,153.091858 
	C715.626953,150.786972 720.310425,148.482086 725.679016,146.146759 
	C725.853149,144.734482 726.027344,143.322205 726.355774,141.097809 
	C726.216980,139.731155 726.078125,138.364517 726.057373,136.186295 
	C725.436279,133.427124 724.815186,130.667969 724.126587,127.125160 
	C724.051086,126.082390 723.975586,125.039619 724.106384,123.249168 
	C724.103149,122.498207 724.099915,121.747246 724.246521,120.250084 
	C724.147827,119.498245 724.049194,118.746407 724.022278,117.415085 
	C723.705139,117.204895 723.388062,116.994705 723.079468,116.087372 
	C723.049316,115.391457 723.019165,114.695534 723.314636,113.211975 
	C723.367126,110.149353 721.740234,110.464798 719.781860,111.458511 
	C715.120850,113.823563 710.461060,116.191109 705.172058,118.683975 
	C704.449280,119.112862 703.726440,119.541748 702.427490,119.934479 
	C702.178406,120.204483 701.929321,120.474480 701.813171,120.793282 
	C701.813171,120.793282 701.738403,120.673103 701.036133,120.774338 
	C698.626465,122.036270 696.216858,123.298203 693.350403,124.664604 
	C693.350403,124.664604 693.000854,124.976677 692.285706,124.999741 
	C692.052551,126.395683 691.819336,127.791634 691.623413,129.810928 
	C691.732178,130.206512 691.840942,130.602097 691.812805,131.888306 
	C692.395508,137.324448 692.978210,142.760605 693.616760,148.908264 
	C693.748779,149.605682 693.880798,150.303085 693.844177,151.848984 
	C694.194580,154.640732 694.545044,157.432495 694.995483,161.021011 
	C697.035767,159.609253 698.136047,158.847946 699.621094,158.137405 
	C699.621094,158.137405 699.995667,158.035583 700.626648,158.219543 
	C700.827698,157.838089 701.028748,157.456635 701.620911,157.118347 
	C701.620911,157.118347 701.999023,157.009079 702.600708,157.195023 
	C702.800964,156.837158 703.001221,156.479294 703.103821,156.102066 
M118.929893,222.276764 
	C119.007217,221.941849 119.084541,221.606918 119.755562,220.911285 
	C125.210007,212.288010 130.664459,203.664749 136.840286,194.877289 
	C137.130936,194.033051 137.421570,193.188797 137.835663,191.691772 
	C145.636536,179.049866 153.437424,166.407944 161.187897,153.847702 
	C158.320770,150.638718 155.794525,147.786011 153.241135,144.957779 
	C142.149536,132.672302 131.050034,120.393967 119.740761,107.458916 
	C119.023628,106.699097 118.306496,105.939278 117.032272,104.589211 
	C117.032272,106.619583 117.032272,107.807945 116.817581,109.912651 
	C116.810036,111.574020 116.798286,113.235390 116.795570,114.896767 
	C116.738152,149.951248 116.681763,185.005722 116.000275,220.167511 
	C116.000275,221.989349 116.000275,223.811188 116.000275,225.633026 
	C116.553665,225.715210 117.107056,225.797394 117.660446,225.879562 
	C118.076096,224.852478 118.491753,223.825378 118.929893,222.276764 
M488.414062,153.390366 
	C488.414062,153.390366 488.536926,153.512146 489.309357,153.180527 
	C489.538635,142.120438 489.767914,131.060333 490.197815,119.089607 
	C490.138672,114.727043 490.079529,110.364479 490.196899,105.189003 
	C490.105469,103.808746 490.014038,102.428490 489.869171,100.241760 
	C487.787750,101.780342 486.365692,102.831535 484.237671,103.951927 
	C477.345947,108.230698 470.425568,112.464203 463.571259,116.802071 
	C457.750092,120.486092 452.005127,124.290520 445.956787,128.481598 
	C445.996246,128.649002 446.035736,128.816422 445.886322,129.906464 
	C445.912323,145.601974 445.938293,161.297485 445.802032,177.544937 
	C446.222717,177.742065 446.643402,177.939194 447.775787,178.063202 
	C459.874756,170.781601 471.973724,163.499985 484.725800,156.104980 
	C485.971680,155.255386 487.217529,154.405777 488.414062,153.390366 
M820.184937,196.082123 
	C820.184937,191.566101 820.184937,187.050064 820.184937,181.623215 
	C818.237122,182.740891 817.323730,183.264984 815.940308,183.734528 
	C815.584106,184.011887 815.227905,184.289246 814.146851,184.656693 
	C810.769043,186.510056 807.391235,188.363434 803.427307,190.265091 
	C803.309326,191.501022 803.191406,192.736938 802.890564,194.889877 
	C803.203186,200.264755 803.515808,205.639618 803.809387,211.782654 
	C804.673035,211.572357 805.536682,211.362061 807.084717,211.098953 
	C810.063965,209.416962 813.043274,207.734970 816.632874,206.034622 
	C817.463440,205.479630 818.294006,204.924637 819.776245,204.169205 
	C819.861755,202.441223 819.947205,200.713257 820.217102,198.331848 
	C820.152283,197.888351 820.087524,197.444855 820.184937,196.082123 
M200.090607,112.913765 
	C200.090607,112.913765 200.192215,112.871231 200.112198,112.164673 
	C198.504181,109.980362 196.896149,107.796051 195.190048,105.642097 
	C195.190048,105.642097 195.198318,105.539757 195.434311,104.756668 
	C194.348831,103.295418 193.263351,101.834160 191.344788,99.251427 
	C189.196823,104.968605 187.511215,109.455177 185.282364,114.376625 
	C180.335510,125.905334 175.388657,137.434052 169.943069,149.079163 
	C169.802719,149.551773 169.662369,150.024384 169.522018,150.496994 
	C169.996185,150.393600 170.470352,150.290207 171.631058,150.072754 
	C172.090408,150.058594 172.549774,150.044434 173.357025,150.518616 
	C174.250122,150.159653 175.143204,149.800690 176.663162,149.156586 
	C177.115707,149.127716 177.568237,149.098831 178.369568,149.547714 
	C179.259476,149.193787 180.149384,148.839874 181.741501,148.185654 
	C182.496231,148.130020 183.250946,148.074402 184.256836,148.455521 
	C184.852753,148.179489 185.448669,147.903442 186.745453,147.311142 
	C187.501434,147.222229 188.257431,147.133316 189.458572,147.570404 
	C190.520737,147.899170 191.582886,148.227936 192.682480,148.568283 
	C192.450180,149.918411 192.257492,151.038406 191.413788,152.583603 
	C184.276215,153.885345 177.138657,155.187088 170.005234,156.488083 
	C170.005234,163.720352 170.005234,170.359344 169.424652,177.525558 
	C169.730621,180.365738 170.036606,183.205917 170.599640,186.836136 
	C170.530548,188.210495 170.461456,189.584869 169.914719,191.087509 
	C170.124542,191.737061 170.334366,192.386627 170.794250,193.935120 
	C170.862640,198.956802 170.931030,203.978485 170.397980,209.575226 
	C170.775024,214.395752 171.152069,219.216278 171.773514,224.897995 
	C171.783356,227.287109 171.793182,229.676239 171.357025,232.494858 
	C171.783783,232.961868 172.210541,233.428864 172.637299,233.895859 
	C173.049561,233.165207 173.461823,232.434540 173.969238,231.030594 
	C190.381821,204.260315 206.928528,177.561356 218.690704,147.540939 
	C210.725250,148.941040 203.397400,150.229065 196.084976,150.724335 
	C196.405472,149.005005 196.725983,147.285675 197.724091,145.193970 
	C198.488342,145.147903 199.252609,145.101837 200.350311,145.534409 
	C201.248047,145.216293 202.145798,144.898193 203.670593,144.280106 
	C204.122787,144.217239 204.574997,144.154373 205.385071,144.566574 
	C206.268616,144.189240 207.152161,143.811890 208.783127,143.106400 
	C211.192154,142.748840 213.601181,142.391296 216.414627,142.545563 
	C217.800369,142.095779 219.186127,141.645996 220.571884,141.196228 
	C220.194092,140.787781 219.816315,140.379333 218.928940,139.472778 
	C213.674683,131.856567 208.420425,124.240341 202.839127,116.069054 
	C201.936737,114.983253 201.034332,113.897453 200.090607,112.913765 
M110.884903,221.071243 
	C110.884903,180.427475 110.884903,139.783707 110.884903,98.060562 
	C109.265755,99.457664 108.477936,100.137444 107.048248,101.009239 
	C77.778526,123.659622 48.508804,146.309998 18.843863,169.266220 
	C30.879545,177.312775 42.197197,184.897018 53.533089,192.453903 
	C71.493690,204.427078 89.466507,216.381943 107.911888,228.949539 
	C108.718330,229.341583 109.524773,229.733612 110.607002,230.259735 
	C110.779083,227.865463 110.917793,225.935608 111.638016,223.917694 
	C111.947586,223.596481 112.257164,223.275269 112.566742,222.954071 
	C112.062973,222.634201 111.559204,222.314331 110.884903,221.071243 
M372.615417,160.692001 
	C374.051270,159.804031 375.487122,158.916046 377.488800,157.678131 
	C356.296021,157.678131 336.073242,157.678131 315.850433,157.678131 
	C315.753082,157.958115 315.655731,158.238098 315.558350,158.518082 
	C318.037964,160.017822 320.517609,161.517563 323.436584,163.527100 
	C329.503357,167.600494 335.474182,171.831421 341.709290,175.628372 
	C343.136322,176.497391 345.905090,176.622391 347.321564,175.809464 
	C355.659271,171.024292 363.779602,165.860306 372.615417,160.692001 
M349.675476,67.279892 
	C347.184265,64.824684 344.926086,65.312813 342.148132,67.955063 
	C332.046906,74.820183 321.945648,81.685295 311.147827,88.712952 
	C307.743317,91.031372 304.338776,93.349800 300.980103,95.637009 
	C301.634918,98.506012 302.224670,101.089226 302.814056,103.672508 
	C306.321228,119.044289 309.828369,134.416077 313.433075,150.635391 
	C313.958984,150.770355 314.484863,150.905319 315.921539,151.273254 
	C336.611847,151.194077 357.302124,151.114883 378.707764,151.074158 
	C378.899933,150.685028 379.092102,150.295883 379.742004,149.346359 
	C380.512115,145.570877 381.282227,141.795380 382.424530,137.362350 
	C385.324463,124.331841 388.266327,111.310234 391.037323,98.252350 
	C391.238861,97.302582 390.513336,95.638855 389.690491,95.066223 
	C376.553650,85.924080 363.330688,76.905731 349.675476,67.279892 
M160.911774,165.854141 
	C157.675415,171.046783 154.440475,176.240295 151.202454,181.431885 
	C140.694748,198.279099 130.185928,215.125595 119.070168,232.088760 
	C118.866684,232.867661 118.663200,233.646561 118.459709,234.425476 
	C118.971931,234.287277 119.484146,234.149078 120.931038,233.928894 
	C135.807632,233.928894 150.684235,233.928894 165.973846,233.928894 
	C165.973846,230.570999 165.973846,227.789474 166.490448,224.636520 
	C166.295380,223.748795 166.100311,222.861069 165.622223,221.194016 
	C165.113998,203.182541 164.627777,185.170364 164.061874,167.160706 
	C164.008163,165.451080 163.455261,163.757126 162.394196,162.110352 
	C161.956863,163.135620 161.519531,164.160873 160.911774,165.854141 
M184.092117,96.960800 
	C162.720047,96.960800 141.347992,96.960800 118.405449,96.960800 
	C134.343323,114.829437 149.183609,131.467514 164.326233,148.444565 
	C171.550842,131.432266 178.431717,115.229347 185.915817,98.913162 
	C186.135956,98.140091 186.356094,97.367027 186.576248,96.593964 
	C186.061295,96.694824 185.546341,96.795685 184.092117,96.960800 
M343.763428,238.671249 
	C343.763428,240.409866 343.763428,242.148483 343.763428,244.788284 
	C350.367371,240.907959 356.219238,237.469543 362.782867,233.987671 
	C369.025940,230.534225 375.192566,226.930450 381.547577,223.697006 
	C384.314911,222.288971 385.209076,220.568283 385.185242,217.507874 
	C385.048096,199.890350 385.136414,182.271103 385.132019,164.652451 
	C385.131714,163.437592 384.998962,162.222763 384.877533,160.149963 
	C373.783936,167.023590 363.394165,173.461136 352.289490,179.987030 
	C349.624023,182.557404 344.266602,182.264130 344.246338,187.657776 
	C344.195831,201.104858 344.103333,214.551788 343.840363,228.890518 
	C343.883881,231.923325 343.927368,234.956131 343.763428,238.671249 
M437.349976,248.822296 
	C438.114746,249.224716 438.879547,249.627151 440.015350,250.224808 
	C440.015350,230.743332 439.814362,211.888840 440.150085,193.043930 
	C440.239258,188.038223 438.628174,185.302811 433.604614,183.495499 
	C421.917206,176.904663 410.229828,170.313828 398.127014,163.121231 
	C396.060791,161.940826 393.994568,160.760422 391.906586,159.567566 
	C391.501801,160.374161 391.249237,160.642807 391.248749,160.911896 
	C391.212646,180.109192 391.164886,199.306671 391.257111,218.503464 
	C391.262695,219.666611 392.394714,220.824356 393.534821,222.414017 
	C407.993225,231.009064 422.451630,239.604111 437.349976,248.822296 
M446.094269,199.517044 
	C446.094269,216.231827 446.094269,232.946609 446.094269,249.871826 
	C447.457794,249.672165 447.968445,249.693069 448.401825,249.520248 
	C473.408569,239.547485 498.427124,229.603317 523.360657,219.450211 
	C524.723938,218.895065 526.098938,216.649292 526.237854,215.081360 
	C527.251709,203.643097 528.048767,192.181885 528.627014,180.713409 
	C528.701538,179.234467 527.514221,176.915390 526.252991,176.267914 
	C515.754089,170.877960 505.141815,165.700760 494.445221,160.713562 
	C492.999939,160.039703 490.550934,160.166489 489.152832,160.957962 
	C478.156738,167.182953 467.592407,174.239502 456.310120,179.867279 
	C448.004089,184.010452 444.354919,189.479355 446.094269,199.517044 
M225.329361,150.620956 
	C220.027267,162.827332 214.815628,175.074387 209.357971,187.210785 
	C208.033386,190.156281 208.437424,191.834763 210.949951,193.907135 
	C221.090271,202.271103 230.997070,210.917435 241.048981,219.389633 
	C248.750183,225.880539 256.539825,232.266525 264.576721,238.937073 
	C278.287201,213.800201 291.719055,189.174133 305.310944,164.254684 
	C301.045654,163.059586 297.130035,161.638184 293.089874,160.884735 
	C271.860291,156.925751 250.602661,153.116318 229.339539,149.340729 
	C228.207581,149.139740 226.937027,149.719299 225.329361,150.620956 
M483.540253,97.091370 
	C484.674286,96.299515 485.808319,95.507652 487.140961,94.577110 
	C476.408691,87.909019 465.592072,82.177917 455.939331,74.902641 
	C446.947510,68.125542 439.734772,67.985847 430.639435,74.781395 
	C420.791473,82.139275 409.728882,87.871437 398.675690,94.630798 
	C413.168396,103.656517 426.952576,112.316505 440.866974,120.762047 
	C441.970337,121.431763 444.295258,121.143143 445.513153,120.407265 
	C458.035034,112.841263 470.445557,105.090988 483.540253,97.091370 
M507.711395,86.262360 
	C503.516541,88.710808 499.321655,91.159256 494.499146,93.974037 
	C507.285400,101.748230 519.180603,109.043137 531.183411,116.156685 
	C532.115112,116.708893 534.018005,116.386841 535.099731,115.795090 
	C541.225586,112.443939 547.243713,108.895393 553.288757,105.397041 
	C559.392273,101.864822 565.484436,98.312767 572.372131,94.309952 
	C559.354736,86.679939 547.208557,79.478111 534.927185,72.514915 
	C533.919922,71.943871 531.801636,72.650558 530.522949,73.352478 
	C523.079407,77.438545 515.732544,81.700691 507.711395,86.262360 
M240.994217,99.433723 
	C236.767395,111.320389 232.540558,123.207062 228.313721,135.093719 
	C228.684662,135.299683 229.055603,135.505630 229.426529,135.711578 
	C251.039276,121.553497 272.652008,107.395416 294.793671,92.890846 
	C280.161438,84.603485 266.344940,76.778130 252.138031,68.731659 
	C248.396667,79.055443 244.836060,88.880501 240.994217,99.433723 
M595.423340,227.924759 
	C600.448486,225.339127 605.519287,222.836075 610.464172,220.105148 
	C611.587463,219.484802 613.034668,218.083694 613.047363,217.026566 
	C613.218506,202.754120 613.162231,188.478943 613.162231,173.624344 
	C605.922607,177.390930 598.588745,181.149475 591.310120,185.012268 
	C585.895081,187.886124 578.479004,189.652573 575.757629,194.192245 
	C573.020508,198.758377 574.937500,206.143265 574.902832,212.293457 
	C574.855408,220.696762 574.890991,229.100540 574.890991,238.313873 
	C582.054443,234.675064 588.399109,231.452164 595.423340,227.924759 
M555.035034,156.503754 
	C560.020264,153.820068 564.918396,150.953339 570.025024,148.524918 
	C572.854309,147.179459 573.782410,145.433746 573.763428,142.363708 
	C573.688171,130.199387 573.883911,118.033531 573.949646,105.868080 
	C573.957092,104.479721 573.778320,103.090355 573.645874,101.101364 
	C560.922852,108.290741 548.774658,115.116058 536.699463,122.068306 
	C535.907349,122.524361 535.251099,123.948235 535.244507,124.926743 
	C535.151062,138.828232 535.180847,152.730545 535.180847,167.128860 
	C541.853333,163.566299 548.123230,160.218689 555.035034,156.503754 
M601.288452,108.194046 
	C604.144348,109.894035 607.181885,111.355888 609.807129,113.358238 
	C612.665283,115.538239 614.937378,115.196518 617.900269,113.448883 
	C626.041260,108.646919 634.392090,104.200401 642.663452,99.619720 
	C644.576111,98.560516 646.503113,97.527245 649.168274,96.076714 
	C637.449768,89.157547 626.759949,82.796455 615.991089,76.571999 
	C615.031738,76.017487 613.297058,75.854942 612.364990,76.347595 
	C601.378052,82.155197 590.475525,88.122620 578.849121,94.428566 
	C586.571777,99.178627 593.612000,103.508904 601.288452,108.194046 
M616.992554,146.657639 
	C617.242859,151.421051 617.493103,156.184479 617.778137,161.609314 
	C627.297607,156.796127 636.152832,152.281219 645.042603,147.835419 
	C652.670410,144.020752 652.664978,144.056915 652.205383,135.362579 
	C651.674133,125.313347 651.188599,115.261703 650.646912,104.488556 
	C639.054199,110.329575 628.076782,115.786552 617.218750,121.471397 
	C616.345886,121.928391 615.887512,123.967117 615.929016,125.248367 
	C616.150146,132.070724 616.591980,138.885941 616.992554,146.657639 
M660.780029,218.482422 
	C660.780029,222.347809 660.780029,226.213211 660.780029,231.064011 
	C671.620544,225.566223 681.358032,220.660431 691.041565,215.650192 
	C691.758850,215.279022 692.525574,214.159668 692.531250,213.382660 
	C692.623840,200.834030 692.596680,188.284515 692.596680,175.195892 
	C682.875244,179.878052 673.543091,184.516953 664.069031,188.845428 
	C661.330261,190.096741 660.521790,191.690018 660.600952,194.550613 
	C660.812317,202.192581 660.734802,209.842545 660.780029,218.482422 
M601.402100,172.871429 
	C603.723938,171.535400 606.045776,170.199371 608.911377,168.550430 
	C600.218933,164.365494 592.067444,160.984772 584.483704,156.618057 
	C578.398560,153.114288 573.433350,152.752747 567.257812,156.673782 
	C558.354919,162.326462 548.777832,166.917343 538.670410,172.405502 
	C550.301025,177.452316 561.018616,182.196289 571.846497,186.673416 
	C573.082764,187.184586 575.113159,186.547287 576.475830,185.853989 
	C584.607361,181.716919 592.650940,177.407028 601.402100,172.871429 
M661.802856,99.708580 
	C666.767761,102.712303 672.289246,105.083099 676.578857,108.854828 
	C684.867615,116.142883 692.283691,115.182556 700.645752,109.062218 
	C706.447388,104.815842 713.082520,101.708122 719.817261,97.819069 
	C709.424438,91.614334 699.757202,85.781044 690.000061,80.102287 
	C688.884399,79.452972 686.949585,79.053917 685.928711,79.578415 
	C675.956909,84.701622 666.098816,90.046005 655.424377,95.746033 
	C657.883545,97.267494 659.542053,98.293602 661.802856,99.708580 
M658.140930,184.703964 
	C668.251343,179.927246 678.361694,175.150513 689.318176,169.974045 
	C680.482056,165.497833 672.412781,161.958954 664.930237,157.447006 
	C658.875305,153.795898 653.748657,153.552963 647.550781,157.121368 
	C640.014038,161.460648 631.909607,164.813889 622.963623,169.116486 
	C635.188354,174.707520 646.293091,179.786362 658.140930,184.703964 
M747.709534,86.241745 
	C740.834290,89.945099 733.959045,93.648453 726.603821,97.610344 
	C735.955261,103.365791 744.966858,108.948097 754.042419,114.424438 
	C754.716614,114.831276 756.043762,114.820427 756.739624,114.425781 
	C765.248779,109.599625 773.696655,104.665344 782.680725,99.457436 
	C774.903809,94.892220 767.404602,90.907921 760.381470,86.211716 
	C756.115173,83.358971 752.476929,82.493301 747.709534,86.241745 
M763.246094,145.315643 
	C763.801697,149.845490 764.357300,154.375336 764.967346,159.349396 
	C773.748718,154.984116 781.927856,150.984146 790.015198,146.806351 
	C790.926086,146.335815 791.949768,144.794662 791.852600,143.861221 
	C790.882874,134.546280 789.688843,125.254707 788.482300,115.333786 
	C780.595825,119.216286 773.285950,123.080803 765.740479,126.411827 
	C762.227295,127.962784 761.065002,129.835388 761.831787,133.562317 
	C762.564087,137.121277 762.696045,140.803757 763.246094,145.315643 
M714.534546,175.942429 
	C720.107788,178.536591 725.649658,181.202469 731.279236,183.668045 
	C732.493103,184.199677 734.270325,184.558578 735.368774,184.064636 
	C744.268250,180.062592 753.067810,175.838196 762.675354,171.315582 
	C752.572510,166.194870 743.127136,161.381027 733.641357,156.648102 
	C732.863342,156.259933 731.619629,156.037277 730.914612,156.387177 
	C721.829590,160.896133 712.803101,165.523239 703.086060,170.464035 
	C707.270569,172.468399 710.561096,174.044540 714.534546,175.942429 
M516.485962,233.652328 
	C515.836609,234.064941 515.187256,234.477554 514.044434,235.203781 
	C523.990601,240.645844 533.394836,245.832916 542.861633,250.903183 
	C543.752747,251.380463 545.271423,251.569839 546.103088,251.135422 
	C553.081421,247.490097 559.967285,243.667725 567.943237,239.319641 
	C559.466736,236.571396 551.968750,234.805206 545.047974,231.737137 
	C535.226746,227.383286 526.090149,226.905655 516.485962,233.652328 
M603.381042,237.192307 
	C606.359741,238.656616 609.646240,239.707962 612.262634,241.658249 
	C622.413818,249.225021 631.905701,248.847916 641.442749,240.479553 
	C644.399109,237.885498 648.173279,236.223419 652.629395,233.485596 
	C641.043457,230.754211 630.883667,228.347290 620.713562,225.984894 
	C619.938782,225.804916 618.970154,225.670471 618.295532,225.971634 
	C612.031921,228.767731 605.813110,231.664078 598.756165,234.910965 
	C600.748047,235.903671 601.745911,236.400970 603.381042,237.192307 
M679.314148,231.732315 
	C676.379944,234.165390 679.750366,234.288956 680.634827,234.735596 
	C687.588623,238.247284 694.612000,241.623962 701.664551,244.934570 
	C702.770447,245.453705 704.469482,246.035370 705.322144,245.560593 
	C713.004395,241.283173 720.558960,236.776321 729.048523,231.811905 
	C722.078857,229.455322 716.109863,227.909271 710.549988,225.441422 
	C703.068665,222.120682 696.205872,221.612518 689.250061,226.670700 
	C686.472717,228.690369 683.081360,229.865829 679.314148,231.732315 
M822.816467,146.823349 
	C823.066345,149.917542 823.316284,153.011749 823.622009,156.797577 
	C831.059937,153.127319 837.875488,149.827744 844.603882,146.358871 
	C845.393860,145.951614 846.226562,144.568787 846.154724,143.712494 
	C845.466736,135.518875 844.588135,127.341255 843.710449,118.624702 
	C836.454407,122.216385 829.724426,125.404861 823.180847,128.938324 
	C822.181274,129.478088 821.544922,131.632660 821.598877,133.006653 
	C821.768250,137.317154 822.347534,141.611557 822.816467,146.823349 
M798.056641,104.379486 
	C802.023193,106.808769 805.963440,109.282806 809.973572,111.637955 
	C811.065491,112.279259 812.758667,113.297089 813.512451,112.895821 
	C820.554504,109.146629 827.451965,105.125854 834.945374,100.868927 
	C827.407837,96.482437 820.835632,92.614799 814.205872,88.848518 
	C813.274109,88.319199 811.779175,87.727982 811.021301,88.110123 
	C804.051636,91.624207 797.187012,95.346657 789.687500,99.329376 
	C792.881348,101.279900 795.141968,102.660522 798.056641,104.379486 
M821.840942,172.582489 
	C814.998596,168.905762 808.178223,165.186630 801.286743,161.604416 
	C800.394897,161.140823 798.928040,160.957413 798.078308,161.368759 
	C790.989746,164.800446 783.983459,168.401993 776.429504,172.216293 
	C783.867676,176.002991 790.454102,179.505554 797.196411,182.676804 
	C798.757996,183.411301 801.174561,183.705490 802.644775,183.018661 
	C809.089783,180.008026 815.331665,176.562683 821.840942,172.582489 
M876.936951,148.678070 
	C877.284058,150.927307 877.631104,153.176544 878.036804,155.805756 
	C884.626221,152.541443 890.744812,149.574142 896.780701,146.447174 
	C897.625061,146.009735 898.681946,144.717026 898.592773,143.940475 
	C897.771729,136.788284 896.719727,129.662582 895.662476,122.003586 
	C892.942139,123.278198 890.984192,124.138916 889.077148,125.100403 
	C884.482544,127.416916 877.849243,128.699677 875.898254,132.422394 
	C873.855103,136.320740 876.317932,142.580627 876.936951,148.678070 
M760.003418,234.447189 
	C762.536926,235.679535 765.026428,237.016663 767.619324,238.107895 
	C769.384399,238.850723 771.717346,240.223969 773.067993,239.637543 
	C779.835449,236.699310 786.362610,233.207672 793.698181,229.549484 
	C786.242493,226.143372 779.648193,223.078217 772.994080,220.148926 
	C772.023743,219.721756 770.555420,219.506821 769.678467,219.934235 
	C763.520386,222.935516 757.457031,226.131088 750.540344,229.687805 
	C754.064453,231.455582 756.699036,232.777130 760.003418,234.447189 
M871.069397,175.628403 
	C872.292969,174.934326 873.516541,174.240250 875.244080,173.260300 
	C868.549133,169.542328 862.356812,166.037628 856.077820,162.695877 
	C855.248779,162.254654 853.780273,162.270050 852.942261,162.710266 
	C847.079590,165.789917 841.304810,169.036957 834.837158,172.596298 
	C839.955444,175.418762 844.771667,177.620041 849.073914,180.570648 
	C853.692566,183.738174 857.644165,183.738892 862.102905,180.403717 
	C864.592651,178.541458 867.642334,177.427948 871.069397,175.628403 
M845.878906,99.293129 
	C843.526855,100.463608 843.932678,101.399796 845.975342,102.585533 
	C851.855530,105.998962 857.662659,109.538345 863.510437,113.035378 
	C869.740356,109.504990 875.857666,106.038361 882.679871,102.172318 
	C879.929993,100.567299 877.950256,99.423859 875.981995,98.261009 
	C862.502502,90.297180 862.503845,90.296814 848.756836,97.864532 
	C848.031067,98.264114 847.283630,98.624443 845.878906,99.293129 
M857.027466,205.447250 
	C857.145142,207.163208 857.262756,208.879166 857.410645,211.036804 
	C862.841797,208.372086 867.754822,206.048111 872.560730,203.520432 
	C873.383667,203.087631 874.264771,201.772766 874.243103,200.886810 
	C874.094360,194.818726 873.712097,188.756363 873.375488,182.108521 
	C868.891174,184.183273 865.214905,186.190918 861.322388,187.602676 
	C857.052185,189.151474 855.375122,191.574432 856.422119,196.159042 
	C857.040894,198.868378 856.842407,201.764328 857.027466,205.447250 
M819.444214,225.017517 
	C817.011169,226.358322 814.578125,227.699112 811.638184,229.319244 
	C817.781189,232.420837 823.335999,235.284943 828.960327,238.005112 
	C829.873108,238.446594 831.328613,238.697876 832.135498,238.276138 
	C837.651428,235.392975 843.061096,232.306534 849.375000,228.802872 
	C845.424133,227.011612 842.213684,226.017456 839.517212,224.242432 
	C832.828796,219.839661 826.473572,219.736755 819.444214,225.017517 
M938.209595,127.900421 
	C935.051758,129.375626 931.793640,130.677414 928.787354,132.414749 
	C927.647461,133.073517 926.280945,134.822510 926.399719,135.925735 
	C926.980225,141.316040 928.027527,146.656067 928.974976,152.410492 
	C934.170837,149.968140 938.996094,147.845734 943.649109,145.396179 
	C944.640015,144.874542 945.671875,143.082886 945.544189,142.012329 
	C944.921875,136.792496 943.912659,131.618820 942.964905,125.980026 
	C941.238464,126.658195 940.060364,127.120979 938.209595,127.900421 
M905.234558,109.340263 
	C907.797546,110.388908 909.674194,113.560196 913.239014,111.382805 
	C917.731384,108.638802 922.425964,106.225731 927.547180,103.384811 
	C921.988220,100.065140 916.905212,96.993439 911.770874,94.009972 
	C911.136169,93.641151 910.046936,93.388184 909.475403,93.680923 
	C904.289673,96.337051 899.172302,99.126534 893.482910,102.172501 
	C897.792603,104.830566 901.178345,106.918777 905.234558,109.340263 
M901.390747,168.941147 
	C898.794128,170.384109 896.197510,171.827072 893.001343,173.603226 
	C898.732178,176.745636 903.920654,179.633820 909.169128,182.408386 
	C909.759216,182.720337 910.826416,182.645264 911.439819,182.316208 
	C916.281372,179.718948 921.066467,177.016342 926.480957,174.005844 
	C922.565979,171.903961 919.092407,170.564713 916.250549,168.397278 
	C911.272278,164.600494 906.737000,164.757431 901.390747,168.941147 
M884.898132,235.266235 
	C890.030823,232.829407 895.163574,230.392578 901.562500,227.354584 
	C895.516541,224.449310 890.701477,222.034027 885.777649,219.865692 
	C884.918701,219.487411 883.462402,219.883316 882.520203,220.376587 
	C878.315125,222.578018 874.196411,224.944458 869.716370,227.434814 
	C874.859375,230.103241 879.553711,232.538834 884.898132,235.266235 
M941.971069,104.289101 
	C945.162781,106.370384 948.279114,108.584900 951.589050,110.457199 
	C952.676758,111.072495 954.527039,111.343117 955.578308,110.836655 
	C959.131104,109.124954 962.481812,106.993874 965.632141,105.182747 
	C958.286194,97.297768 950.530029,95.620399 942.201233,103.204376 
	C942.078125,103.316383 941.960815,103.434677 941.971069,104.289101 
M948.734741,177.436615 
	C958.567566,183.253601 960.909973,183.070221 968.332336,175.902390 
	C958.832825,168.133301 956.127502,168.070618 946.226501,175.530029 
	C946.859436,176.064194 947.454163,176.566147 948.734741,177.436615 
M928.346375,221.756973 
	C926.946411,222.577652 925.546509,223.398331 924.029175,224.287796 
	C933.641541,231.635635 938.434937,231.614166 944.911499,224.230820 
	C939.747620,222.128204 935.500000,215.872803 928.346375,221.756973 
M922.195557,195.049881 
	C921.990234,191.998184 921.784851,188.946487 921.572632,185.792648 
	C911.748169,189.542816 910.677734,191.538910 913.040710,202.351181 
	C916.273621,200.075974 919.235229,197.991684 922.195557,195.049881 
M192.234665,99.994736 
	C191.859146,100.133438 191.483612,100.272133 191.108093,100.410835 
	C191.533340,100.526627 191.958603,100.642410 192.234665,99.994736 
z"/>
<path fill="#1B1B19" opacity="1.000000" stroke="none" 
	d="
M107.434158,228.344543 
	C89.466507,216.381943 71.493690,204.427078 53.533089,192.453903 
	C42.197197,184.897018 30.879545,177.312775 18.843863,169.266220 
	C48.508804,146.309998 77.778526,123.659622 107.728271,101.175934 
	C108.636917,102.619850 109.064072,103.896881 109.065323,105.174332 
	C109.103943,144.617035 109.120651,184.059814 109.033638,223.502350 
	C109.030075,225.117584 107.990852,226.730530 107.434158,228.344543 
z"/>
<path fill="#1B1B1A" opacity="1.000000" stroke="none" 
	d="
M446.094818,199.021271 
	C444.354919,189.479355 448.004089,184.010452 456.310120,179.867279 
	C467.592407,174.239502 478.156738,167.182953 489.152832,160.957962 
	C490.550934,160.166489 492.999939,160.039703 494.445221,160.713562 
	C505.141815,165.700760 515.754089,170.877960 526.252991,176.267914 
	C527.514221,176.915390 528.701538,179.234467 528.627014,180.713409 
	C528.048767,192.181885 527.251709,203.643097 526.237854,215.081360 
	C526.098938,216.649292 524.723938,218.895065 523.360657,219.450211 
	C498.427124,229.603317 473.408569,239.547485 448.401825,249.520248 
	C447.968445,249.693069 447.457794,249.672165 446.094269,249.871826 
	C446.094269,232.946609 446.094269,216.231827 446.094818,199.021271 
z"/>
<path fill="#1B1B19" opacity="1.000000" stroke="none" 
	d="
M225.530182,150.278229 
	C226.937027,149.719299 228.207581,149.139740 229.339539,149.340729 
	C250.602661,153.116318 271.860291,156.925751 293.089874,160.884735 
	C297.130035,161.638184 301.045654,163.059586 305.310944,164.254684 
	C291.719055,189.174133 278.287201,213.800201 264.576721,238.937073 
	C256.539825,232.266525 248.750183,225.880539 241.048981,219.389633 
	C230.997070,210.917435 221.090271,202.271103 210.949951,193.907135 
	C208.437424,191.834763 208.033386,190.156281 209.357971,187.210785 
	C214.815628,175.074387 220.027267,162.827332 225.530182,150.278229 
z"/>
<path fill="#1B1B19" opacity="1.000000" stroke="none" 
	d="
M313.335510,149.787872 
	C309.828369,134.416077 306.321228,119.044289 302.814056,103.672508 
	C302.224670,101.089226 301.634918,98.506012 300.980103,95.637009 
	C304.338776,93.349800 307.743317,91.031372 311.568085,89.041595 
	C313.701233,90.232399 315.656952,92.104378 317.080231,91.762108 
	C320.922791,90.838051 324.185028,90.872162 327.360809,93.467186 
	C328.025940,94.010643 329.435577,93.642921 331.109039,93.724762 
	C330.171753,87.180672 334.015442,84.489998 338.975800,82.440598 
	C341.683350,81.321968 344.092712,79.501213 346.738068,78.204086 
	C348.030426,77.570381 349.747681,76.777695 350.941986,77.141724 
	C357.075836,79.011276 364.879059,77.674774 368.039825,85.682617 
	C368.320221,86.393021 369.933350,86.620804 370.958405,86.985786 
	C374.152496,88.123016 377.514404,88.914848 380.515961,90.426773 
	C382.889648,91.622414 384.410583,93.466118 383.392303,96.930252 
	C382.730774,99.180649 383.054932,102.911255 384.529022,104.366302 
	C388.308868,108.097282 386.698212,111.391945 385.316010,115.167839 
	C384.515503,117.354752 384.337250,119.767609 383.855377,122.073845 
	C383.626770,123.167976 383.638397,124.463402 383.034058,125.302307 
	C380.090210,129.388687 381.676636,133.734177 382.052368,138.019897 
	C381.282227,141.795380 380.512115,145.570877 379.244446,149.751617 
	C378.495392,150.449814 378.243927,150.742752 377.992432,151.035706 
	C357.302124,151.114883 336.611847,151.194077 315.267029,150.858551 
	C314.186859,150.225204 313.761200,150.006546 313.335510,149.787872 
z"/>
<path fill="#1A1A19" opacity="1.000000" stroke="none" 
	d="
M398.542419,163.722977 
	C410.229828,170.313828 421.917206,176.904663 433.859619,184.135559 
	C438.835663,188.253952 437.999664,193.332047 437.996368,198.184738 
	C437.986481,212.769379 438.040527,227.354294 437.951416,241.938385 
	C437.938660,244.027344 437.273346,246.112320 436.910034,248.199142 
	C422.451630,239.604111 407.993225,231.009064 393.239990,221.732300 
	C392.945190,201.836273 392.945190,182.621964 392.945190,163.082230 
	C395.336426,163.355972 396.939423,163.539474 398.542419,163.722977 
z"/>
<path fill="#1B1B19" opacity="1.000000" stroke="none" 
	d="
M136.118896,195.041473 
	C130.664459,203.664749 125.210007,212.288010 119.277367,220.818573 
	C118.217339,220.477127 117.635498,220.228409 116.950073,220.018585 
	C116.846474,220.057480 116.625175,220.060196 116.625175,220.060196 
	C116.681763,185.005722 116.738152,149.951248 116.795570,114.896767 
	C116.798286,113.235390 116.810036,111.574020 117.248444,109.461685 
	C118.437332,108.711487 119.195366,108.412254 119.953400,108.113022 
	C131.050034,120.393967 142.149536,132.672302 153.241135,144.957779 
	C155.794525,147.786011 158.320770,150.638718 161.187897,153.847702 
	C153.437424,166.407944 145.636536,179.049866 137.508667,192.208252 
	C136.827423,193.496994 136.473160,194.269226 136.118896,195.041473 
z"/>
<path fill="#1C1C1A" opacity="1.000000" stroke="none" 
	d="
M483.213684,97.241730 
	C470.445557,105.090988 458.035034,112.841263 445.513153,120.407265 
	C444.295258,121.143143 441.970337,121.431763 440.866974,120.762047 
	C426.952576,112.316505 413.168396,103.656517 398.675690,94.630798 
	C409.728882,87.871437 420.791473,82.139275 430.639435,74.781395 
	C439.734772,67.985847 446.947510,68.125542 455.939331,74.902641 
	C465.592072,82.177917 476.408691,87.909019 487.140961,94.577110 
	C485.808319,95.507652 484.674286,96.299515 483.213684,97.241730 
z"/>
<path fill="#1B1B1A" opacity="1.000000" stroke="none" 
	d="
M353.004395,179.898666 
	C363.394165,173.461136 373.783936,167.023590 384.877533,160.149963 
	C384.998962,162.222763 385.131714,163.437592 385.132019,164.652451 
	C385.136414,182.271103 385.048096,199.890350 385.185242,217.507874 
	C385.209076,220.568283 384.314911,222.288971 381.547577,223.697006 
	C375.192566,226.930450 369.025940,230.534225 362.088531,233.869843 
	C359.408386,234.029480 357.191345,233.846069 355.493774,234.697937 
	C353.237823,235.830017 351.239014,237.616257 349.396545,239.397430 
	C346.634888,242.067215 345.295044,240.303635 343.970886,237.988937 
	C343.927368,234.956131 343.883881,231.923325 344.328857,228.353333 
	C345.185791,227.309326 345.876038,226.801956 345.875214,226.295715 
	C345.857117,215.280991 346.274902,204.268814 346.043243,193.252335 
	C345.973755,189.948395 344.954895,186.339508 349.821594,184.846512 
	C351.253693,184.407166 351.963531,181.613403 353.004395,179.898666 
z"/>
<path fill="#1A1A18" opacity="1.000000" stroke="none" 
	d="
M446.226410,128.041656 
	C452.005127,124.290520 457.750092,120.486092 463.571259,116.802071 
	C470.425568,112.464203 477.345947,108.230698 484.793640,104.202385 
	C486.906555,104.969200 488.463470,105.485550 490.020386,106.001907 
	C490.079529,110.364479 490.138672,114.727043 489.700012,119.630043 
	C488.831726,120.676582 488.134796,121.185310 488.138855,121.688393 
	C488.223999,132.296692 488.388214,142.904358 488.536926,153.512146 
	C488.536926,153.512146 488.414062,153.390366 488.068787,153.337555 
	C486.506561,154.262634 485.289642,155.240509 484.072693,156.218384 
	C471.973724,163.499985 459.874756,170.781601 447.292664,177.857834 
	C446.527771,177.432648 446.246033,177.212830 445.964264,176.992996 
	C445.938293,161.297485 445.912323,145.601974 446.136169,129.374741 
	C446.457733,128.756027 446.608185,128.630936 446.587708,128.588577 
	C446.493378,128.393631 446.351349,128.221771 446.226410,128.041656 
z"/>
<path fill="#1C1C1A" opacity="1.000000" stroke="none" 
	d="
M170.999420,209.000168 
	C170.931030,203.978485 170.862640,198.956802 170.762421,193.137543 
	C170.617844,191.879730 170.505112,191.419479 170.392380,190.959229 
	C170.461456,189.584869 170.530548,188.210495 170.603806,186.024567 
	C170.407059,182.474777 170.206146,179.736572 170.005249,176.998352 
	C170.005234,170.359344 170.005234,163.720352 170.005234,156.488083 
	C177.138657,155.187088 184.276215,153.885345 192.081558,152.417175 
	C193.856079,152.006180 194.962814,151.761627 196.069565,151.517090 
	C203.397400,150.229065 210.725250,148.941040 218.690704,147.540939 
	C206.928528,177.561356 190.381821,204.260315 173.569122,231.484009 
	C172.713684,231.980057 172.258362,232.022705 171.803024,232.065353 
	C171.793182,229.676239 171.783356,227.287109 171.775986,224.015610 
	C171.518784,218.422211 171.259109,213.711182 170.999420,209.000168 
z"/>
<path fill="#1C1C1B" opacity="1.000000" stroke="none" 
	d="
M508.032196,86.082855 
	C515.732544,81.700691 523.079407,77.438545 530.522949,73.352478 
	C531.801636,72.650558 533.919922,71.943871 534.927185,72.514915 
	C547.208557,79.478111 559.354736,86.679939 572.372131,94.309952 
	C565.484436,98.312767 559.392273,101.864822 553.288757,105.397041 
	C547.243713,108.895393 541.225586,112.443939 535.099731,115.795090 
	C534.018005,116.386841 532.115112,116.708893 531.183411,116.156685 
	C519.180603,109.043137 507.285400,101.748230 494.499146,93.974037 
	C499.321655,91.159256 503.516541,88.710808 508.032196,86.082855 
z"/>
<path fill="#1D1D1B" opacity="1.000000" stroke="none" 
	d="
M241.134827,99.069641 
	C244.836060,88.880501 248.396667,79.055443 252.138031,68.731659 
	C266.344940,76.778130 280.161438,84.603485 294.793671,92.890846 
	C272.652008,107.395416 251.039276,121.553497 229.426529,135.711578 
	C229.055603,135.505630 228.684662,135.299683 228.313721,135.093719 
	C232.540558,123.207062 236.767395,111.320389 241.134827,99.069641 
z"/>
<path fill="#1C1C1A" opacity="1.000000" stroke="none" 
	d="
M595.083557,228.077026 
	C588.399109,231.452164 582.054443,234.675064 574.890991,238.313873 
	C574.890991,229.100540 574.855408,220.696762 574.902832,212.293457 
	C574.937500,206.143265 573.020508,198.758377 575.757629,194.192245 
	C578.479004,189.652573 585.895081,187.886124 591.310120,185.012268 
	C598.588745,181.149475 605.922607,177.390930 613.162231,173.624344 
	C613.162231,188.478943 613.218506,202.754120 613.047363,217.026566 
	C613.034668,218.083694 611.587463,219.484802 610.464172,220.105148 
	C605.519287,222.836075 600.448486,225.339127 595.083557,228.077026 
z"/>
<path fill="#1C1C1B" opacity="1.000000" stroke="none" 
	d="
M554.714111,156.687408 
	C548.123230,160.218689 541.853333,163.566299 535.180847,167.128860 
	C535.180847,152.730545 535.151062,138.828232 535.244507,124.926743 
	C535.251099,123.948235 535.907349,122.524361 536.699463,122.068306 
	C548.774658,115.116058 560.922852,108.290741 573.645874,101.101364 
	C573.778320,103.090355 573.957092,104.479721 573.949646,105.868080 
	C573.883911,118.033531 573.688171,130.199387 573.763428,142.363708 
	C573.782410,145.433746 572.854309,147.179459 570.025024,148.524918 
	C564.918396,150.953339 560.020264,153.820068 554.714111,156.687408 
z"/>
<path fill="#1D1D1B" opacity="1.000000" stroke="none" 
	d="
M185.312592,99.026428 
	C178.431717,115.229347 171.550842,131.432266 164.326233,148.444565 
	C149.183609,131.467514 134.343323,114.829437 118.405449,96.960800 
	C141.347992,96.960800 162.720047,96.960800 184.693024,97.268219 
	C185.300156,98.059227 185.306381,98.542831 185.312592,99.026428 
z"/>
<path fill="#1D1D1B" opacity="1.000000" stroke="none" 
	d="
M165.973846,225.007935 
	C165.973846,227.789474 165.973846,230.570999 165.973846,233.928894 
	C150.684235,233.928894 135.807632,233.928894 120.359314,233.640137 
	C119.750908,232.891693 119.714226,232.432037 119.677544,231.972366 
	C130.185928,215.125595 140.694748,198.279099 151.202454,181.431885 
	C154.440475,176.240295 157.675415,171.046783 161.269760,165.350189 
	C162.129868,163.916138 162.631973,162.986023 163.134094,162.055908 
	C163.455261,163.757126 164.008163,165.451080 164.061874,167.160706 
	C164.627777,185.170364 165.113998,203.182541 165.641037,221.818176 
	C165.764511,223.297531 165.869186,224.152725 165.973846,225.007935 
z"/>
<path fill="#1C1C1B" opacity="1.000000" stroke="none" 
	d="
M600.970337,108.016617 
	C593.612000,103.508904 586.571777,99.178627 578.849121,94.428566 
	C590.475525,88.122620 601.378052,82.155197 612.364990,76.347595 
	C613.297058,75.854942 615.031738,76.017487 615.991089,76.571999 
	C626.759949,82.796455 637.449768,89.157547 649.168274,96.076714 
	C646.503113,97.527245 644.576111,98.560516 642.663452,99.619720 
	C634.392090,104.200401 626.041260,108.646919 617.900269,113.448883 
	C614.937378,115.196518 612.665283,115.538239 609.807129,113.358238 
	C607.181885,111.355888 604.144348,109.894035 600.970337,108.016617 
z"/>
<path fill="#1D1D1B" opacity="1.000000" stroke="none" 
	d="
M616.974976,146.180634 
	C616.591980,138.885941 616.150146,132.070724 615.929016,125.248367 
	C615.887512,123.967117 616.345886,121.928391 617.218750,121.471397 
	C628.076782,115.786552 639.054199,110.329575 650.646912,104.488556 
	C651.188599,115.261703 651.674133,125.313347 652.205383,135.362579 
	C652.664978,144.056915 652.670410,144.020752 645.042603,147.835419 
	C636.152832,152.281219 627.297607,156.796127 617.778137,161.609314 
	C617.493103,156.184479 617.242859,151.421051 616.974976,146.180634 
z"/>
<path fill="#1C1C1B" opacity="1.000000" stroke="none" 
	d="
M660.776123,217.985870 
	C660.734802,209.842545 660.812317,202.192581 660.600952,194.550613 
	C660.521790,191.690018 661.330261,190.096741 664.069031,188.845428 
	C673.543091,184.516953 682.875244,179.878052 692.596680,175.195892 
	C692.596680,188.284515 692.623840,200.834030 692.531250,213.382660 
	C692.525574,214.159668 691.758850,215.279022 691.041565,215.650192 
	C681.358032,220.660431 671.620544,225.566223 660.780029,231.064011 
	C660.780029,226.213211 660.780029,222.347809 660.776123,217.985870 
z"/>
<path fill="#1D1D1B" opacity="1.000000" stroke="none" 
	d="
M601.063110,173.013275 
	C592.650940,177.407028 584.607361,181.716919 576.475830,185.853989 
	C575.113159,186.547287 573.082764,187.184586 571.846497,186.673416 
	C561.018616,182.196289 550.301025,177.452316 538.670410,172.405502 
	C548.777832,166.917343 558.354919,162.326462 567.257812,156.673782 
	C573.433350,152.752747 578.398560,153.114288 584.483704,156.618057 
	C592.067444,160.984772 600.218933,164.365494 608.911377,168.550430 
	C606.045776,170.199371 603.723938,171.535400 601.063110,173.013275 
z"/>
<path fill="#1D1D1B" opacity="1.000000" stroke="none" 
	d="
M661.501709,99.514145 
	C659.542053,98.293602 657.883545,97.267494 655.424377,95.746033 
	C666.098816,90.046005 675.956909,84.701622 685.928711,79.578415 
	C686.949585,79.053917 688.884399,79.452972 690.000061,80.102287 
	C699.757202,85.781044 709.424438,91.614334 719.817261,97.819069 
	C713.082520,101.708122 706.447388,104.815842 700.645752,109.062218 
	C692.283691,115.182556 684.867615,116.142883 676.578857,108.854828 
	C672.289246,105.083099 666.767761,102.712303 661.501709,99.514145 
z"/>
<path fill="#1C1C1B" opacity="1.000000" stroke="none" 
	d="
M657.769409,184.784576 
	C646.293091,179.786362 635.188354,174.707520 622.963623,169.116486 
	C631.909607,164.813889 640.014038,161.460648 647.550781,157.121368 
	C653.748657,153.552963 658.875305,153.795898 664.930237,157.447006 
	C672.412781,161.958954 680.482056,165.497833 689.318176,169.974045 
	C678.361694,175.150513 668.251343,179.927246 657.769409,184.784576 
z"/>
<path fill="#1D1D1C" opacity="1.000000" stroke="none" 
	d="
M173.009125,150.030273 
	C172.549774,150.044434 172.090408,150.058594 171.159454,149.824860 
	C170.605835,149.372253 170.523834,149.167511 170.441818,148.962769 
	C175.388657,137.434052 180.335510,125.905334 185.957321,114.174156 
	C188.344925,114.863731 190.057571,115.755775 191.770203,116.647820 
	C191.661301,116.249977 191.552399,115.852127 191.443497,115.454277 
	C194.359741,114.593262 197.275970,113.732246 200.192215,112.871231 
	C200.192215,112.871231 200.090607,112.913765 200.066010,113.243225 
	C198.917404,115.528145 197.793381,117.483604 196.669373,119.439064 
	C196.821106,119.735550 196.972855,120.032036 197.124603,120.328522 
	C199.138458,119.093727 201.152313,117.858925 203.166168,116.624130 
	C208.420425,124.240341 213.674683,131.856567 219.047272,140.050415 
	C218.113815,141.096634 217.062012,141.565201 216.010208,142.033752 
	C213.601181,142.391296 211.192154,142.748840 208.096832,143.187088 
	C206.616089,143.542358 205.821640,143.816940 205.027191,144.091522 
	C204.574997,144.154373 204.122787,144.217239 203.051514,144.324554 
	C201.627243,144.597931 200.822052,144.826859 200.016861,145.055786 
	C199.252609,145.101837 198.488342,145.147903 197.008423,145.315567 
	C193.866318,145.972916 191.439865,146.508667 189.013412,147.044403 
	C188.257431,147.133316 187.501434,147.222229 186.134979,147.352722 
	C185.018234,147.602463 184.511948,147.810623 184.005676,148.018784 
	C183.250946,148.074402 182.496231,148.130020 181.076004,148.271790 
	C179.613937,148.595276 178.817368,148.832611 178.020782,149.069946 
	C177.568237,149.098831 177.115707,149.127716 176.033386,149.237396 
	C174.605453,149.555557 173.807297,149.792923 173.009125,150.030273 
z"/>
<path fill="#1B1B19" opacity="1.000000" stroke="none" 
	d="
M709.006409,153.939804 
	C709.006409,153.939789 708.616028,154.072998 707.992676,154.049408 
	C705.955872,154.750015 704.542480,155.474197 703.129089,156.198380 
	C703.129089,156.198380 703.103821,156.102066 702.896851,156.174225 
	C702.459595,156.500626 702.229309,156.754868 701.999023,157.009094 
	C701.999023,157.009079 701.620911,157.118347 701.163940,157.176727 
	C700.469849,157.501923 700.232727,157.768738 699.995667,158.035583 
	C699.995667,158.035583 699.621094,158.137405 699.040527,158.079834 
	C693.466248,157.129700 697.491577,154.496841 697.459290,152.263962 
	C696.375671,151.866699 695.194214,151.433594 694.012817,151.000504 
	C693.880798,150.303085 693.748779,149.605682 693.950256,148.302155 
	C694.261963,143.859283 694.469788,140.001236 694.117188,136.195114 
	C693.951965,134.411026 692.705933,132.727051 691.949707,130.997681 
	C691.840942,130.602097 691.732178,130.206512 691.938965,129.290085 
	C692.503296,127.505051 692.752075,126.240860 693.000854,124.976677 
	C693.000854,124.976677 693.350403,124.664604 693.761963,124.922302 
	C697.881165,125.668381 700.875366,124.959312 701.738403,120.673103 
	C701.738403,120.673103 701.813171,120.793282 702.021545,120.750519 
	C702.487854,120.462044 702.745728,120.216331 703.003662,119.970627 
	C703.726440,119.541748 704.449280,119.112862 705.680725,118.944221 
	C707.613770,118.962509 709.097290,118.897575 710.451599,118.445724 
	C714.657104,117.042633 718.813599,115.492622 722.989014,113.999619 
	C723.019165,114.695534 723.049316,115.391457 723.146606,116.686966 
	C723.459290,117.522568 723.704895,117.758575 723.950562,117.994576 
	C724.049194,118.746407 724.147827,119.498245 723.796692,120.621185 
	C722.340576,121.215607 721.334351,121.438942 720.328064,121.662277 
	C720.278931,122.053696 720.229797,122.445114 720.180664,122.836533 
	C721.420471,123.223305 722.660278,123.610077 723.900085,123.996841 
	C723.975586,125.039619 724.051086,126.082390 723.846558,127.764267 
	C722.892761,131.672562 721.700073,135.085052 725.939270,136.997864 
	C726.078125,138.364517 726.216980,139.731155 725.965637,141.733551 
	C725.381653,143.638611 725.187805,144.907913 724.993896,146.177216 
	C720.310425,148.482086 715.626953,150.786972 710.327576,153.150879 
	C709.476624,153.453217 709.241516,153.696518 709.006409,153.939804 
z"/>
<path fill="#1D1D1B" opacity="1.000000" stroke="none" 
	d="
M748.043091,86.075089 
	C752.476929,82.493301 756.115173,83.358971 760.381470,86.211716 
	C767.404602,90.907921 774.903809,94.892220 782.680725,99.457436 
	C773.696655,104.665344 765.248779,109.599625 756.739624,114.425781 
	C756.043762,114.820427 754.716614,114.831276 754.042419,114.424438 
	C744.966858,108.948097 735.955261,103.365791 726.603821,97.610344 
	C733.959045,93.648453 740.834290,89.945099 748.043091,86.075089 
z"/>
<path fill="#1E1E1C" opacity="1.000000" stroke="none" 
	d="
M763.168945,144.873779 
	C762.696045,140.803757 762.564087,137.121277 761.831787,133.562317 
	C761.065002,129.835388 762.227295,127.962784 765.740479,126.411827 
	C773.285950,123.080803 780.595825,119.216286 788.482300,115.333786 
	C789.688843,125.254707 790.882874,134.546280 791.852600,143.861221 
	C791.949768,144.794662 790.926086,146.335815 790.015198,146.806351 
	C781.927856,150.984146 773.748718,154.984116 764.967346,159.349396 
	C764.357300,154.375336 763.801697,149.845490 763.168945,144.873779 
z"/>
<path fill="#1C1C1B" opacity="1.000000" stroke="none" 
	d="
M714.193115,175.781555 
	C710.561096,174.044540 707.270569,172.468399 703.086060,170.464035 
	C712.803101,165.523239 721.829590,160.896133 730.914612,156.387177 
	C731.619629,156.037277 732.863342,156.259933 733.641357,156.648102 
	C743.127136,161.381027 752.572510,166.194870 762.675354,171.315582 
	C753.067810,175.838196 744.268250,180.062592 735.368774,184.064636 
	C734.270325,184.558578 732.493103,184.199677 731.279236,183.668045 
	C725.649658,181.202469 720.107788,178.536591 714.193115,175.781555 
z"/>
<path fill="#1E1E1D" opacity="1.000000" stroke="none" 
	d="
M738.941956,216.987122 
	C738.809265,215.342178 738.676514,213.697235 738.917969,211.385056 
	C739.651611,206.714935 742.120911,202.467743 737.934082,198.991348 
	C737.810547,197.667786 737.687073,196.344238 737.897827,194.424759 
	C739.174927,192.040329 740.117859,190.251801 741.060791,188.463287 
	C747.696716,185.237549 754.332642,182.011780 761.564209,179.059097 
	C762.598877,179.595398 763.037842,179.858627 763.476807,180.121841 
	C763.575073,180.801285 763.673279,181.480728 763.252441,182.732162 
	C762.545654,191.123016 762.335327,198.941574 762.225403,206.761536 
	C762.218689,207.236816 763.009644,207.723328 763.429443,208.204620 
	C763.525208,208.602905 763.620972,209.001205 763.147278,209.673401 
	C761.387024,210.615540 760.196228,211.283783 759.005432,211.952011 
	C752.961792,214.066727 746.918213,216.181458 740.355286,218.006866 
	C739.537964,217.474091 739.239990,217.230606 738.941956,216.987122 
z"/>
<path fill="#151514" opacity="1.000000" stroke="none" 
	d="
M382.238464,137.691132 
	C381.676636,133.734177 380.090210,129.388687 383.034058,125.302307 
	C383.638397,124.463402 383.626770,123.167976 383.855377,122.073845 
	C384.337250,119.767609 384.515503,117.354752 385.316010,115.167839 
	C386.698212,111.391945 388.308868,108.097282 384.529022,104.366302 
	C383.054932,102.911255 382.730774,99.180649 383.392303,96.930252 
	C384.410583,93.466118 382.889648,91.622414 380.515961,90.426773 
	C377.514404,88.914848 374.152496,88.123016 370.958405,86.985786 
	C369.933350,86.620804 368.320221,86.393021 368.039825,85.682617 
	C364.879059,77.674774 357.075836,79.011276 350.941986,77.141724 
	C349.747681,76.777695 348.030426,77.570381 346.738068,78.204086 
	C344.092712,79.501213 341.683350,81.321968 338.975800,82.440598 
	C334.015442,84.489998 330.171753,87.180672 331.109039,93.724762 
	C329.435577,93.642921 328.025940,94.010643 327.360809,93.467186 
	C324.185028,90.872162 320.922791,90.838051 317.080231,91.762108 
	C315.656952,92.104378 313.701233,90.232399 311.916382,88.960327 
	C321.945648,81.685295 332.046906,74.820183 342.546204,67.949516 
	C342.944305,67.943970 343.059753,68.066719 342.991272,68.392334 
	C342.423889,69.508102 341.925049,70.298256 341.403046,71.125092 
	C349.452026,74.151398 349.832062,74.008362 349.977417,68.019470 
	C350.027802,67.966438 350.127319,67.859169 350.127319,67.859161 
	C363.330688,76.905731 376.553650,85.924080 389.690491,95.066223 
	C390.513336,95.638855 391.238861,97.302582 391.037323,98.252350 
	C388.266327,111.310234 385.324463,124.331841 382.238464,137.691132 
M322.790588,84.378593 
	C322.835358,85.470734 322.880127,86.562866 322.924896,87.654999 
	C323.487396,87.500290 324.049927,87.345581 324.612396,87.190880 
	C324.242310,86.193993 323.872192,85.197098 322.790588,84.378593 
z"/>
<path fill="#20201E" opacity="1.000000" stroke="none" 
	d="
M516.804565,233.512817 
	C526.090149,226.905655 535.226746,227.383286 545.047974,231.737137 
	C551.968750,234.805206 559.466736,236.571396 567.943237,239.319641 
	C559.967285,243.667725 553.081421,247.490097 546.103088,251.135422 
	C545.271423,251.569839 543.752747,251.380463 542.861633,250.903183 
	C533.394836,245.832916 523.990601,240.645844 514.044434,235.203781 
	C515.187256,234.477554 515.836609,234.064941 516.804565,233.512817 
z"/>
<path fill="#20201E" opacity="1.000000" stroke="none" 
	d="
M603.062378,237.045288 
	C601.745911,236.400970 600.748047,235.903671 598.756165,234.910965 
	C605.813110,231.664078 612.031921,228.767731 618.295532,225.971634 
	C618.970154,225.670471 619.938782,225.804916 620.713562,225.984894 
	C630.883667,228.347290 641.043457,230.754211 652.629395,233.485596 
	C648.173279,236.223419 644.399109,237.885498 641.442749,240.479553 
	C631.905701,248.847916 622.413818,249.225021 612.262634,241.658249 
	C609.646240,239.707962 606.359741,238.656616 603.062378,237.045288 
z"/>
<path fill="#1E1E1D" opacity="1.000000" stroke="none" 
	d="
M679.641846,231.578949 
	C683.081360,229.865829 686.472717,228.690369 689.250061,226.670700 
	C696.205872,221.612518 703.068665,222.120682 710.549988,225.441422 
	C716.109863,227.909271 722.078857,229.455322 729.048523,231.811905 
	C720.558960,236.776321 713.004395,241.283173 705.322144,245.560593 
	C704.469482,246.035370 702.770447,245.453705 701.664551,244.934570 
	C694.612000,241.623962 687.588623,238.247284 680.634827,234.735596 
	C679.750366,234.288956 676.379944,234.165390 679.641846,231.578949 
z"/>
<path fill="#1D1D1B" opacity="1.000000" stroke="none" 
	d="
M822.792236,146.367767 
	C822.347534,141.611557 821.768250,137.317154 821.598877,133.006653 
	C821.544922,131.632660 822.181274,129.478088 823.180847,128.938324 
	C829.724426,125.404861 836.454407,122.216385 843.710449,118.624702 
	C844.588135,127.341255 845.466736,135.518875 846.154724,143.712494 
	C846.226562,144.568787 845.393860,145.951614 844.603882,146.358871 
	C837.875488,149.827744 831.059937,153.127319 823.622009,156.797577 
	C823.316284,153.011749 823.066345,149.917542 822.792236,146.367767 
z"/>
<path fill="#1D1D1C" opacity="1.000000" stroke="none" 
	d="
M797.729614,104.210312 
	C795.141968,102.660522 792.881348,101.279900 789.687500,99.329376 
	C797.187012,95.346657 804.051636,91.624207 811.021301,88.110123 
	C811.779175,87.727982 813.274109,88.319199 814.205872,88.848518 
	C820.835632,92.614799 827.407837,96.482437 834.945374,100.868927 
	C827.451965,105.125854 820.554504,109.146629 813.512451,112.895821 
	C812.758667,113.297089 811.065491,112.279259 809.973572,111.637955 
	C805.963440,109.282806 802.023193,106.808769 797.729614,104.210312 
z"/>
<path fill="#1E1E1C" opacity="1.000000" stroke="none" 
	d="
M821.744080,172.928741 
	C815.331665,176.562683 809.089783,180.008026 802.644775,183.018661 
	C801.174561,183.705490 798.757996,183.411301 797.196411,182.676804 
	C790.454102,179.505554 783.867676,176.002991 776.429504,172.216293 
	C783.983459,168.401993 790.989746,164.800446 798.078308,161.368759 
	C798.928040,160.957413 800.394897,161.140823 801.286743,161.604416 
	C808.178223,165.186630 814.998596,168.905762 821.744080,172.928741 
z"/>
<path fill="#20201E" opacity="1.000000" stroke="none" 
	d="
M876.874146,148.243195 
	C876.317932,142.580627 873.855103,136.320740 875.898254,132.422394 
	C877.849243,128.699677 884.482544,127.416916 889.077148,125.100403 
	C890.984192,124.138916 892.942139,123.278198 895.662476,122.003586 
	C896.719727,129.662582 897.771729,136.788284 898.592773,143.940475 
	C898.681946,144.717026 897.625061,146.009735 896.780701,146.447174 
	C890.744812,149.574142 884.626221,152.541443 878.036804,155.805756 
	C877.631104,153.176544 877.284058,150.927307 876.874146,148.243195 
z"/>
<path fill="#1D1D1B" opacity="1.000000" stroke="none" 
	d="
M371.973145,160.823929 
	C363.779602,165.860306 355.659271,171.024292 347.321564,175.809464 
	C345.905090,176.622391 343.136322,176.497391 341.709290,175.628372 
	C335.474182,171.831421 329.503357,167.600494 323.162506,162.893723 
	C321.265503,158.736374 323.631500,158.898773 325.942261,158.901855 
	C339.988190,158.920639 354.034637,158.864487 368.079285,158.999893 
	C369.382996,159.012451 370.675446,160.188248 371.973145,160.823929 
z"/>
<path fill="#20201E" opacity="1.000000" stroke="none" 
	d="
M759.668457,234.272919 
	C756.699036,232.777130 754.064453,231.455582 750.540344,229.687805 
	C757.457031,226.131088 763.520386,222.935516 769.678467,219.934235 
	C770.555420,219.506821 772.023743,219.721756 772.994080,220.148926 
	C779.648193,223.078217 786.242493,226.143372 793.698181,229.549484 
	C786.362610,233.207672 779.835449,236.699310 773.067993,239.637543 
	C771.717346,240.223969 769.384399,238.850723 767.619324,238.107895 
	C765.026428,237.016663 762.536926,235.679535 759.668457,234.272919 
z"/>
<path fill="#1E1E1D" opacity="1.000000" stroke="none" 
	d="
M870.754517,175.802704 
	C867.642334,177.427948 864.592651,178.541458 862.102905,180.403717 
	C857.644165,183.738892 853.692566,183.738174 849.073914,180.570648 
	C844.771667,177.620041 839.955444,175.418762 834.837158,172.596298 
	C841.304810,169.036957 847.079590,165.789917 852.942261,162.710266 
	C853.780273,162.270050 855.248779,162.254654 856.077820,162.695877 
	C862.356812,166.037628 868.549133,169.542328 875.244080,173.260300 
	C873.516541,174.240250 872.292969,174.934326 870.754517,175.802704 
z"/>
<path fill="#1E1E1D" opacity="1.000000" stroke="none" 
	d="
M846.212585,99.148079 
	C847.283630,98.624443 848.031067,98.264114 848.756836,97.864532 
	C862.503845,90.296814 862.502502,90.297180 875.981995,98.261009 
	C877.950256,99.423859 879.929993,100.567299 882.679871,102.172318 
	C875.857666,106.038361 869.740356,109.504990 863.510437,113.035378 
	C857.662659,109.538345 851.855530,105.998962 845.975342,102.585533 
	C843.932678,101.399796 843.526855,100.463608 846.212585,99.148079 
z"/>
<path fill="#1C1C1B" opacity="1.000000" stroke="none" 
	d="
M857.019409,205.011810 
	C856.842407,201.764328 857.040894,198.868378 856.422119,196.159042 
	C855.375122,191.574432 857.052185,189.151474 861.322388,187.602676 
	C865.214905,186.190918 868.891174,184.183273 873.375488,182.108521 
	C873.712097,188.756363 874.094360,194.818726 874.243103,200.886810 
	C874.264771,201.772766 873.383667,203.087631 872.560730,203.520432 
	C867.754822,206.048111 862.841797,208.372086 857.410645,211.036804 
	C857.262756,208.879166 857.145142,207.163208 857.019409,205.011810 
z"/>
<path fill="#20201E" opacity="1.000000" stroke="none" 
	d="
M819.786377,224.869446 
	C826.473572,219.736755 832.828796,219.839661 839.517212,224.242432 
	C842.213684,226.017456 845.424133,227.011612 849.375000,228.802872 
	C843.061096,232.306534 837.651428,235.392975 832.135498,238.276138 
	C831.328613,238.697876 829.873108,238.446594 828.960327,238.005112 
	C823.335999,235.284943 817.781189,232.420837 811.638184,229.319244 
	C814.578125,227.699112 817.011169,226.358322 819.786377,224.869446 
z"/>
<path fill="#20201E" opacity="1.000000" stroke="none" 
	d="
M938.545898,127.742096 
	C940.060364,127.120979 941.238464,126.658195 942.964905,125.980026 
	C943.912659,131.618820 944.921875,136.792496 945.544189,142.012329 
	C945.671875,143.082886 944.640015,144.874542 943.649109,145.396179 
	C938.996094,147.845734 934.170837,149.968140 928.974976,152.410492 
	C928.027527,146.656067 926.980225,141.316040 926.399719,135.925735 
	C926.280945,134.822510 927.647461,133.073517 928.787354,132.414749 
	C931.793640,130.677414 935.051758,129.375626 938.545898,127.742096 
z"/>
<path fill="#1E1E1C" opacity="1.000000" stroke="none" 
	d="
M904.899292,109.173622 
	C901.178345,106.918777 897.792603,104.830566 893.482910,102.172501 
	C899.172302,99.126534 904.289673,96.337051 909.475403,93.680923 
	C910.046936,93.388184 911.136169,93.641151 911.770874,94.009972 
	C916.905212,96.993439 921.988220,100.065140 927.547180,103.384811 
	C922.425964,106.225731 917.731384,108.638802 913.239014,111.382805 
	C909.674194,113.560196 907.797546,110.388908 904.899292,109.173622 
z"/>
<path fill="#20201E" opacity="1.000000" stroke="none" 
	d="
M901.736938,168.798065 
	C906.737000,164.757431 911.272278,164.600494 916.250549,168.397278 
	C919.092407,170.564713 922.565979,171.903961 926.480957,174.005844 
	C921.066467,177.016342 916.281372,179.718948 911.439819,182.316208 
	C910.826416,182.645264 909.759216,182.720337 909.169128,182.408386 
	C903.920654,179.633820 898.732178,176.745636 893.001343,173.603226 
	C896.197510,171.827072 898.794128,170.384109 901.736938,168.798065 
z"/>
<path fill="#20201E" opacity="1.000000" stroke="none" 
	d="
M884.573059,235.120331 
	C879.553711,232.538834 874.859375,230.103241 869.716370,227.434814 
	C874.196411,224.944458 878.315125,222.578018 882.520203,220.376587 
	C883.462402,219.883316 884.918701,219.487411 885.777649,219.865692 
	C890.701477,222.034027 895.516541,224.449310 901.562500,227.354584 
	C895.163574,230.392578 890.030823,232.829407 884.573059,235.120331 
z"/>
<path fill="#343433" opacity="1.000000" stroke="none" 
	d="
M107.673019,228.647034 
	C107.990852,226.730530 109.030075,225.117584 109.033638,223.502350 
	C109.120651,184.059814 109.103943,144.617035 109.065323,105.174332 
	C109.064072,103.896881 108.636917,102.619850 108.049210,101.079926 
	C108.477936,100.137444 109.265755,99.457664 110.884903,98.060562 
	C110.884903,139.783707 110.884903,180.427475 110.870224,221.863159 
	C110.922531,223.105301 110.989517,223.555527 111.056503,224.005753 
	C110.917793,225.935608 110.779083,227.865463 110.607002,230.259735 
	C109.524773,229.733612 108.718330,229.341583 107.673019,228.647034 
z"/>
<path fill="#151514" opacity="1.000000" stroke="none" 
	d="
M803.828369,211.014481 
	C803.515808,205.639618 803.203186,200.264755 803.238403,194.214813 
	C803.728638,192.432098 803.870972,191.324432 804.013367,190.216782 
	C807.391235,188.363434 810.769043,186.510056 814.541626,185.017731 
	C812.934265,189.382370 810.932129,193.385956 809.238831,196.772018 
	C810.670776,197.910126 812.674255,198.999527 813.935120,200.654663 
	C815.058044,202.128738 815.358887,204.229034 816.022522,206.052963 
	C813.043274,207.734970 810.063965,209.416962 806.315552,211.075943 
	C804.973755,211.040115 804.401062,211.027298 803.828369,211.014481 
z"/>
<path fill="#20201E" opacity="1.000000" stroke="none" 
	d="
M941.905945,103.919579 
	C941.960815,103.434677 942.078125,103.316383 942.201233,103.204376 
	C950.530029,95.620399 958.286194,97.297768 965.632141,105.182747 
	C962.481812,106.993874 959.131104,109.124954 955.578308,110.836655 
	C954.527039,111.343117 952.676758,111.072495 951.589050,110.457199 
	C948.279114,108.584900 945.162781,106.370384 941.905945,103.919579 
z"/>
<path fill="#232322" opacity="1.000000" stroke="none" 
	d="
M948.391846,177.252350 
	C947.454163,176.566147 946.859436,176.064194 946.226501,175.530029 
	C956.127502,168.070618 958.832825,168.133301 968.332336,175.902390 
	C960.909973,183.070221 958.567566,183.253601 948.391846,177.252350 
z"/>
<path fill="#232322" opacity="1.000000" stroke="none" 
	d="
M928.678772,221.594910 
	C935.500000,215.872803 939.747620,222.128204 944.911499,224.230820 
	C938.434937,231.614166 933.641541,231.635635 924.029175,224.287796 
	C925.546509,223.398331 926.946411,222.577652 928.678772,221.594910 
z"/>
<path fill="#343433" opacity="1.000000" stroke="none" 
	d="
M372.294281,160.757965 
	C370.675446,160.188248 369.382996,159.012451 368.079285,158.999893 
	C354.034637,158.864487 339.988190,158.920639 325.942261,158.901855 
	C323.631500,158.898773 321.265503,158.736374 322.942810,162.638824 
	C320.517609,161.517563 318.037964,160.017822 315.558350,158.518082 
	C315.655731,158.238098 315.753082,157.958115 315.850433,157.678131 
	C336.073242,157.678131 356.296021,157.678131 377.488800,157.678131 
	C375.487122,158.916046 374.051270,159.804031 372.294281,160.757965 
z"/>
<path fill="#0B0C0B" opacity="1.000000" stroke="none" 
	d="
M437.130005,248.510712 
	C437.273346,246.112320 437.938660,244.027344 437.951416,241.938385 
	C438.040527,227.354294 437.986481,212.769379 437.996368,198.184738 
	C437.999664,193.332047 438.835663,188.253952 434.060425,184.419006 
	C438.628174,185.302811 440.239258,188.038223 440.150085,193.043930 
	C439.814362,211.888840 440.015350,230.743332 440.015350,250.224808 
	C438.879547,249.627151 438.114746,249.224716 437.130005,248.510712 
z"/>
<path fill="#343433" opacity="1.000000" stroke="none" 
	d="
M398.334717,163.422104 
	C396.939423,163.539474 395.336426,163.355972 392.945190,163.082230 
	C392.945190,182.621964 392.945190,201.836273 392.973877,221.517593 
	C392.394714,220.824356 391.262695,219.666611 391.257111,218.503464 
	C391.164886,199.306671 391.212646,180.109192 391.248749,160.911896 
	C391.249237,160.642807 391.501801,160.374161 391.906586,159.567566 
	C393.994568,160.760422 396.060791,161.940826 398.334717,163.422104 
z"/>
<path fill="#232322" opacity="1.000000" stroke="none" 
	d="
M922.196167,195.478638 
	C919.235229,197.991684 916.273621,200.075974 913.040710,202.351181 
	C910.677734,191.538910 911.748169,189.542816 921.572632,185.792648 
	C921.784851,188.946487 921.990234,191.998184 922.196167,195.478638 
z"/>
<path fill="#151514" opacity="1.000000" stroke="none" 
	d="
M352.646942,179.942841 
	C351.963531,181.613403 351.253693,184.407166 349.821594,184.846512 
	C344.954895,186.339508 345.973755,189.948395 346.043243,193.252335 
	C346.274902,204.268814 345.857117,215.280991 345.875214,226.295715 
	C345.876038,226.801956 345.185791,227.309326 344.422546,227.907471 
	C344.103333,214.551788 344.195831,201.104858 344.246338,187.657776 
	C344.266602,182.264130 349.624023,182.557404 352.646942,179.942841 
z"/>
<path fill="#151514" opacity="1.000000" stroke="none" 
	d="
M200.152206,112.517952 
	C197.275970,113.732246 194.359741,114.593262 191.443497,115.454277 
	C191.552399,115.852127 191.661301,116.249977 191.770203,116.647820 
	C190.057571,115.755775 188.344925,114.863731 186.228943,113.956726 
	C187.511215,109.455177 189.196823,104.968605 191.344788,99.251427 
	C193.263351,101.834160 194.348831,103.295418 194.991302,105.321693 
	C194.133667,106.610558 193.719025,107.334396 193.304398,108.058235 
	C193.683044,108.229225 194.061676,108.400208 194.440323,108.571198 
	C194.722931,107.584709 195.005539,106.598228 195.288132,105.611740 
	C196.896149,107.796051 198.504181,109.980362 200.152206,112.517952 
z"/>
<path fill="#1E1E1D" opacity="1.000000" stroke="none" 
	d="
M816.327698,206.043793 
	C815.358887,204.229034 815.058044,202.128738 813.935120,200.654663 
	C812.674255,198.999527 810.670776,197.910126 809.238831,196.772018 
	C810.932129,193.385956 812.934265,189.382370 814.904053,184.972687 
	C815.227905,184.289246 815.584106,184.011887 816.550110,183.981873 
	C817.178223,186.744034 817.213013,189.258881 817.209839,191.773682 
	C817.206970,194.033112 815.748047,197.052078 820.022705,197.001358 
	C820.087524,197.444855 820.152283,197.888351 819.824524,198.925262 
	C819.329468,201.135681 819.227051,202.752670 819.124634,204.369659 
	C818.294006,204.924637 817.463440,205.479630 816.327698,206.043793 
z"/>
<path fill="#0B0C0B" opacity="1.000000" stroke="none" 
	d="
M488.923157,153.346344 
	C488.388214,142.904358 488.223999,132.296692 488.138855,121.688393 
	C488.134796,121.185310 488.831726,120.676582 489.599701,120.085358 
	C489.767914,131.060333 489.538635,142.120438 488.923157,153.346344 
z"/>
<path fill="#151514" opacity="1.000000" stroke="none" 
	d="
M343.867157,238.330093 
	C345.295044,240.303635 346.634888,242.067215 349.396545,239.397430 
	C351.239014,237.616257 353.237823,235.830017 355.493774,234.697937 
	C357.191345,233.846069 359.408386,234.029480 361.732666,233.891571 
	C356.219238,237.469543 350.367371,240.907959 343.763428,244.788284 
	C343.763428,242.148483 343.763428,240.409866 343.867157,238.330093 
z"/>
<path fill="#0B0C0B" opacity="1.000000" stroke="none" 
	d="
M763.560059,207.804413 
	C763.009644,207.723328 762.218689,207.236816 762.225403,206.761536 
	C762.335327,198.941574 762.545654,191.123016 763.109802,183.052307 
	C763.554260,191.001709 763.622437,199.202957 763.560059,207.804413 
z"/>
<path fill="#151514" opacity="1.000000" stroke="none" 
	d="
M723.151855,113.605804 
	C718.813599,115.492622 714.657104,117.042633 710.451599,118.445724 
	C709.097290,118.897575 707.613770,118.962509 705.995117,118.881058 
	C710.461060,116.191109 715.120850,113.823563 719.781860,111.458511 
	C721.740234,110.464798 723.367126,110.149353 723.151855,113.605804 
z"/>
<path fill="#151514" opacity="1.000000" stroke="none" 
	d="
M820.103821,196.541748 
	C815.748047,197.052078 817.206970,194.033112 817.209839,191.773682 
	C817.213013,189.258881 817.178223,186.744034 816.785156,184.009155 
	C817.323730,183.264984 818.237122,182.740891 820.184937,181.623215 
	C820.184937,187.050064 820.184937,191.566101 820.103821,196.541748 
z"/>
<path fill="#151514" opacity="1.000000" stroke="none" 
	d="
M691.881226,131.442993 
	C692.705933,132.727051 693.951965,134.411026 694.117188,136.195114 
	C694.469788,140.001236 694.261963,143.859283 693.922363,147.946396 
	C692.978210,142.760605 692.395508,137.324448 691.881226,131.442993 
z"/>
<path fill="#EEEEED" opacity="1.000000" stroke="none" 
	d="
M189.235992,147.307404 
	C191.439865,146.508667 193.866318,145.972916 196.669632,145.501755 
	C196.725983,147.285675 196.405472,149.005005 196.077271,151.120712 
	C194.962814,151.761627 193.856079,152.006180 192.407059,152.204559 
	C192.257492,151.038406 192.450180,149.918411 192.682480,148.568283 
	C191.582886,148.227936 190.520737,147.899170 189.235992,147.307404 
z"/>
<path fill="#EEEEED" opacity="1.000000" stroke="none" 
	d="
M170.698700,209.287689 
	C171.259109,213.711182 171.518784,218.422211 171.653778,223.585022 
	C171.152069,219.216278 170.775024,214.395752 170.698700,209.287689 
z"/>
<path fill="#0B0C0B" opacity="1.000000" stroke="none" 
	d="
M737.860474,199.443420 
	C742.120911,202.467743 739.651611,206.714935 738.929565,210.971329 
	C738.307007,207.448380 738.046936,203.671936 737.860474,199.443420 
z"/>
<path fill="#151514" opacity="1.000000" stroke="none" 
	d="
M693.928467,151.424744 
	C695.194214,151.433594 696.375671,151.866699 697.459290,152.263962 
	C697.491577,154.496841 693.466248,157.129700 698.848145,158.054443 
	C698.136047,158.847946 697.035767,159.609253 694.995483,161.021011 
	C694.545044,157.432495 694.194580,154.640732 693.928467,151.424744 
z"/>
<path fill="#151514" opacity="1.000000" stroke="none" 
	d="
M203.002655,116.346588 
	C201.152313,117.858925 199.138458,119.093727 197.124603,120.328522 
	C196.972855,120.032036 196.821106,119.735550 196.669373,119.439064 
	C197.793381,117.483604 198.917404,115.528145 200.086670,113.192169 
	C201.034332,113.897453 201.936737,114.983253 203.002655,116.346588 
z"/>
<path fill="#151514" opacity="1.000000" stroke="none" 
	d="
M725.998291,136.592072 
	C721.700073,135.085052 722.892761,131.672562 723.880310,128.156082 
	C724.815186,130.667969 725.436279,133.427124 725.998291,136.592072 
z"/>
<path fill="#0B0C0B" opacity="1.000000" stroke="none" 
	d="
M490.108643,105.595459 
	C488.463470,105.485550 486.906555,104.969200 485.146637,104.167786 
	C486.365692,102.831535 487.787750,101.780342 489.869171,100.241760 
	C490.014038,102.428490 490.105469,103.808746 490.108643,105.595459 
z"/>
<path fill="#EEEEED" opacity="1.000000" stroke="none" 
	d="
M169.714951,177.261963 
	C170.206146,179.736572 170.407059,182.474777 170.475281,185.629547 
	C170.036606,183.205917 169.730621,180.365738 169.714951,177.261963 
z"/>
<path fill="#151514" opacity="1.000000" stroke="none" 
	d="
M701.387268,120.723724 
	C700.875366,124.959312 697.881165,125.668381 693.990356,124.870056 
	C696.216858,123.298203 698.626465,122.036270 701.387268,120.723724 
z"/>
<path fill="#EEEEED" opacity="1.000000" stroke="none" 
	d="
M118.907402,222.798294 
	C118.491753,223.825378 118.076096,224.852478 117.660446,225.879562 
	C117.107056,225.797394 116.553665,225.715210 116.000275,225.633026 
	C116.000275,223.811188 116.000275,221.989349 116.312729,220.113861 
	C116.625175,220.060196 116.846474,220.057480 116.872971,220.399139 
	C117.568787,221.426636 118.238091,222.112473 118.907402,222.798294 
z"/>
<path fill="#0B0C0B" opacity="1.000000" stroke="none" 
	d="
M740.660217,188.509613 
	C740.117859,190.251801 739.174927,192.040329 737.903564,194.023834 
	C736.160156,191.236221 736.781067,189.218704 740.660217,188.509613 
z"/>
<path fill="#151514" opacity="1.000000" stroke="none" 
	d="
M342.886108,67.883011 
	C344.926086,65.312813 347.184265,64.824684 349.901398,67.569534 
	C350.127319,67.859169 350.027802,67.966438 349.549194,67.994781 
	C347.066986,68.037659 345.063385,68.052185 343.059753,68.066711 
	C343.059753,68.066719 342.944305,67.943970 342.886108,67.883011 
z"/>
<path fill="#151514" opacity="1.000000" stroke="none" 
	d="
M724.003235,123.623001 
	C722.660278,123.610077 721.420471,123.223305 720.180664,122.836533 
	C720.229797,122.445114 720.278931,122.053696 720.328064,121.662277 
	C721.334351,121.438942 722.340576,121.215607 723.721802,120.994278 
	C724.099915,121.747246 724.103149,122.498207 724.003235,123.623001 
z"/>
<path fill="#151514" opacity="1.000000" stroke="none" 
	d="
M819.450439,204.269440 
	C819.227051,202.752670 819.329468,201.135681 819.732300,199.251984 
	C819.947205,200.713257 819.861755,202.441223 819.450439,204.269440 
z"/>
<path fill="#EEEEED" opacity="1.000000" stroke="none" 
	d="
M216.212418,142.289658 
	C217.062012,141.565201 218.113815,141.096634 219.302078,140.299469 
	C219.816315,140.379333 220.194092,140.787781 220.571884,141.196228 
	C219.186127,141.645996 217.800369,142.095779 216.212418,142.289658 
z"/>
<path fill="#060706" opacity="1.000000" stroke="none" 
	d="
M119.847076,107.785973 
	C119.195366,108.412254 118.437332,108.711487 117.355789,109.003510 
	C117.032272,107.807945 117.032272,106.619583 117.032272,104.589211 
	C118.306496,105.939278 119.023628,106.699097 119.847076,107.785973 
z"/>
<path fill="#151514" opacity="1.000000" stroke="none" 
	d="
M703.506104,156.209564 
	C704.542480,155.474197 705.955872,154.750015 707.786377,154.050537 
	C706.763367,154.790405 705.323242,155.505569 703.506104,156.209564 
z"/>
<path fill="#0B0C0B" opacity="1.000000" stroke="none" 
	d="
M484.399231,156.161682 
	C485.289642,155.240509 486.506561,154.262634 488.093445,153.420471 
	C487.217529,154.405777 485.971680,155.255386 484.399231,156.161682 
z"/>
<path fill="#151514" opacity="1.000000" stroke="none" 
	d="
M725.336487,146.161987 
	C725.187805,144.907913 725.381653,143.638611 725.888550,142.139618 
	C726.027344,143.322205 725.853149,144.734482 725.336487,146.161987 
z"/>
<path fill="#1E1E1D" opacity="1.000000" stroke="none" 
	d="
M803.720337,190.240936 
	C803.870972,191.324432 803.728638,192.432098 803.329834,193.756317 
	C803.191406,192.736938 803.309326,191.501022 803.720337,190.240936 
z"/>
<path fill="#151514" opacity="1.000000" stroke="none" 
	d="
M692.643311,124.988205 
	C692.752075,126.240860 692.503296,127.505051 691.920349,128.978409 
	C691.819336,127.791634 692.052551,126.395683 692.643311,124.988205 
z"/>
<path fill="#EEEEED" opacity="1.000000" stroke="none" 
	d="
M185.614197,98.969795 
	C185.306381,98.542831 185.300156,98.059227 185.162659,97.236084 
	C185.546341,96.795685 186.061295,96.694824 186.576248,96.593964 
	C186.356094,97.367027 186.135956,98.140091 185.614197,98.969795 
z"/>
<path fill="#060706" opacity="1.000000" stroke="none" 
	d="
M118.918648,222.537537 
	C118.238091,222.112473 117.568787,221.426636 116.976570,220.360260 
	C117.635498,220.228409 118.217339,220.477127 118.980522,220.998932 
	C119.084541,221.606918 119.007217,221.941849 118.918648,222.537537 
z"/>
<path fill="#0B0C0B" opacity="1.000000" stroke="none" 
	d="
M759.377319,211.944397 
	C760.196228,211.283783 761.387024,210.615540 762.981995,209.943588 
	C762.173828,210.605499 760.961487,211.271149 759.377319,211.944397 
z"/>
<path fill="#EEEEED" opacity="1.000000" stroke="none" 
	d="
M166.232147,224.822235 
	C165.869186,224.152725 165.764511,223.297531 165.782547,222.207825 
	C166.100311,222.861069 166.295380,223.748795 166.232147,224.822235 
z"/>
<path fill="#EEEEED" opacity="1.000000" stroke="none" 
	d="
M200.183594,145.295105 
	C200.822052,144.826859 201.627243,144.597931 202.737976,144.474548 
	C202.145798,144.898193 201.248047,145.216293 200.183594,145.295105 
z"/>
<path fill="#EEEEED" opacity="1.000000" stroke="none" 
	d="
M178.195175,149.308838 
	C178.817368,148.832611 179.613937,148.595276 180.724899,148.421951 
	C180.149384,148.839874 179.259476,149.193787 178.195175,149.308838 
z"/>
<path fill="#EEEEED" opacity="1.000000" stroke="none" 
	d="
M173.183075,150.274445 
	C173.807297,149.792923 174.605453,149.555557 175.719971,149.379974 
	C175.143204,149.800690 174.250122,150.159653 173.183075,150.274445 
z"/>
<path fill="#EEEEED" opacity="1.000000" stroke="none" 
	d="
M171.580017,232.280106 
	C172.258362,232.022705 172.713684,231.980057 173.521545,231.820648 
	C173.461823,232.434540 173.049561,233.165207 172.637299,233.895859 
	C172.210541,233.428864 171.783783,232.961868 171.580017,232.280106 
z"/>
<path fill="#EEEEED" opacity="1.000000" stroke="none" 
	d="
M205.206131,144.329041 
	C205.821640,143.816940 206.616089,143.542358 207.723114,143.351166 
	C207.152161,143.811890 206.268616,144.189240 205.206131,144.329041 
z"/>
<path fill="#EEEEED" opacity="1.000000" stroke="none" 
	d="
M119.373856,232.030563 
	C119.714226,232.432037 119.750908,232.891693 119.891975,233.681122 
	C119.484146,234.149078 118.971931,234.287277 118.459717,234.425476 
	C118.663200,233.646561 118.866684,232.867661 119.373856,232.030563 
z"/>
<path fill="#EEEEED" opacity="1.000000" stroke="none" 
	d="
M162.764145,162.083130 
	C162.631973,162.986023 162.129868,163.916138 161.354980,165.016205 
	C161.519531,164.160873 161.956863,163.135620 162.764145,162.083130 
z"/>
<path fill="#EEEEED" opacity="1.000000" stroke="none" 
	d="
M136.479584,194.959381 
	C136.473160,194.269226 136.827423,193.496994 137.446960,192.534653 
	C137.421570,193.188797 137.130936,194.033051 136.479584,194.959381 
z"/>
<path fill="#EEEEED" opacity="1.000000" stroke="none" 
	d="
M170.153549,191.023376 
	C170.505112,191.419479 170.617844,191.879730 170.637390,192.688080 
	C170.334366,192.386627 170.124542,191.737061 170.153549,191.023376 
z"/>
<path fill="#EEEEED" opacity="1.000000" stroke="none" 
	d="
M170.192444,149.020966 
	C170.523834,149.167511 170.605835,149.372253 170.816193,149.881897 
	C170.470352,150.290207 169.996185,150.393600 169.522018,150.496994 
	C169.662369,150.024384 169.802719,149.551773 170.192444,149.020966 
z"/>
<path fill="#EEEEED" opacity="1.000000" stroke="none" 
	d="
M111.347260,223.961731 
	C110.989517,223.555527 110.922531,223.105301 110.955490,222.324768 
	C111.559204,222.314331 112.062973,222.634201 112.566742,222.954071 
	C112.257164,223.275269 111.947586,223.596481 111.347260,223.961731 
z"/>
<path fill="#EEEEED" opacity="1.000000" stroke="none" 
	d="
M184.131256,148.237152 
	C184.511948,147.810623 185.018234,147.602463 185.784546,147.510834 
	C185.448669,147.903442 184.852753,148.179489 184.131256,148.237152 
z"/>
<path fill="#1D1D1C" opacity="1.000000" stroke="none" 
	d="
M192.309265,100.376465 
	C191.958603,100.642410 191.533340,100.526627 191.108093,100.410835 
	C191.483612,100.272133 191.859146,100.133438 192.309265,100.376465 
z"/>
<path fill="#1E1E1D" opacity="1.000000" stroke="none" 
	d="
M803.818909,211.398560 
	C804.401062,211.027298 804.973755,211.040115 805.973389,211.102356 
	C805.536682,211.362061 804.673035,211.572357 803.818909,211.398560 
z"/>
<path fill="#060706" opacity="1.000000" stroke="none" 
	d="
M445.883148,177.268967 
	C446.246033,177.212830 446.527771,177.432648 446.936829,177.894394 
	C446.643402,177.939194 446.222717,177.742065 445.883148,177.268967 
z"/>
<path fill="#151514" opacity="1.000000" stroke="none" 
	d="
M702.299866,157.102066 
	C702.229309,156.754868 702.459595,156.500626 702.945679,156.183899 
	C703.001221,156.479294 702.800964,156.837158 702.299866,157.102066 
z"/>
<path fill="#151514" opacity="1.000000" stroke="none" 
	d="
M700.311157,158.127563 
	C700.232727,157.768738 700.469849,157.501923 700.968384,157.155151 
	C701.028748,157.456635 700.827698,157.838089 700.311157,158.127563 
z"/>
<path fill="#151514" opacity="1.000000" stroke="none" 
	d="
M709.296509,153.993286 
	C709.241516,153.696518 709.476624,153.453217 709.961182,153.140167 
	C710.002686,153.395844 709.794678,153.721298 709.296509,153.993286 
z"/>
<path fill="#0B0C0B" opacity="1.000000" stroke="none" 
	d="
M738.912659,217.381149 
	C739.239990,217.230606 739.537964,217.474091 739.956665,217.986298 
	C739.679321,218.095062 739.281311,217.935120 738.912659,217.381149 
z"/>
<path fill="#151514" opacity="1.000000" stroke="none" 
	d="
M723.986450,117.704834 
	C723.704895,117.758575 723.459290,117.522568 723.142334,117.035538 
	C723.388062,116.994705 723.705139,117.204895 723.986450,117.704834 
z"/>
<path fill="#151514" opacity="1.000000" stroke="none" 
	d="
M702.715576,119.952545 
	C702.745728,120.216331 702.487854,120.462044 701.955078,120.726120 
	C701.929321,120.474480 702.178406,120.204483 702.715576,119.952545 
z"/>
<path fill="#060706" opacity="1.000000" stroke="none" 
	d="
M378.350098,151.054932 
	C378.243927,150.742752 378.495392,150.449814 379.015564,150.031799 
	C379.092102,150.295883 378.899933,150.685028 378.350098,151.054932 
z"/>
<path fill="#060706" opacity="1.000000" stroke="none" 
	d="
M446.091614,128.261627 
	C446.351349,128.221771 446.493378,128.393631 446.587708,128.588577 
	C446.608185,128.630936 446.457733,128.756027 446.230621,128.913422 
	C446.035736,128.816422 445.996246,128.649002 446.091614,128.261627 
z"/>
<path fill="#060706" opacity="1.000000" stroke="none" 
	d="
M313.384308,150.211639 
	C313.761200,150.006546 314.186859,150.225204 314.811646,150.742065 
	C314.484863,150.905319 313.958984,150.770355 313.384308,150.211639 
z"/>
<path fill="#0B0C0B" opacity="1.000000" stroke="none" 
	d="
M763.577515,179.808624 
	C763.037842,179.858627 762.598877,179.595398 761.926392,179.023849 
	C761.692932,178.715515 761.723145,178.721176 762.154297,178.786621 
	C762.878052,178.859161 763.170776,178.866272 763.463501,178.873367 
	C763.535095,179.080719 763.606628,179.288055 763.577515,179.808624 
z"/>
<path fill="#1E1E1D" opacity="1.000000" stroke="none" 
	d="
M763.423706,178.526474 
	C763.170776,178.866272 762.878052,178.859161 762.153503,178.771698 
	C762.275757,178.520737 762.829834,178.350159 763.423706,178.526474 
z"/>
<path fill="#1B1B19" opacity="1.000000" stroke="none" 
	d="
M342.991272,68.392326 
	C345.063385,68.052185 347.066986,68.037659 349.498810,68.047821 
	C349.832062,74.008362 349.452026,74.151398 341.403046,71.125092 
	C341.925049,70.298256 342.423889,69.508102 342.991272,68.392326 
z"/>
<path fill="#1B1B19" opacity="1.000000" stroke="none" 
	d="
M323.146332,84.289398 
	C323.872192,85.197098 324.242310,86.193993 324.612427,87.190872 
	C324.049927,87.345581 323.487396,87.500290 322.924896,87.654999 
	C322.880127,86.562866 322.835358,85.470734 323.146332,84.289398 
z"/>
<path fill="#1D1D1C" opacity="1.000000" stroke="none" 
	d="
M195.239090,105.626923 
	C195.005539,106.598228 194.722931,107.584709 194.440323,108.571198 
	C194.061676,108.400208 193.683044,108.229225 193.304398,108.058235 
	C193.719025,107.334396 194.133667,106.610558 194.873306,105.713242 
	C195.198318,105.539757 195.190048,105.642097 195.239090,105.626923 
z"/>
</svg>