<svg version="1.1" xmlns="http://www.w3.org/2000/svg" width="100%" viewBox="0 0 1024 544" role="img" aria-label="doppler">
<defs>
 <linearGradient id="dop-base" gradientUnits="userSpaceOnUse" x1="0" y1="0" x2="1024" y2="544">
  <stop offset="0" stop-color="#ff1f3d"/>
  <stop offset="1" stop-color="#315bff"/>
 </linearGradient>
 <linearGradient id="dop-sweep" gradientUnits="userSpaceOnUse" x1="0" y1="544" x2="1024" y2="0" gradientTransform="rotate(-9 512 272)">
  <stop offset="0" stop-color="#315bff"/>
  <stop offset="0.5" stop-color="#c026d3"/>
  <stop offset="1" stop-color="#ff1f3d"/>
 </linearGradient>
 <linearGradient id="dop-tint" gradientUnits="userSpaceOnUse" x1="0" y1="272" x2="1024" y2="272" gradientTransform="rotate(14 512 272)">
  <stop offset="0" stop-color="#ff1f3d"/>
  <stop offset="1" stop-color="#315bff"/>
 </linearGradient>
 <clipPath id="dop-clip" clipPathUnits="userSpaceOnUse">
  <path d="M915.177551,43.073151 
	C922.213013,41.365170 928.839783,39.719574 935.487549,38.164043 
	C940.378174,37.019680 942.112549,38.699928 940.870117,43.636024 
	C939.660156,48.442982 938.094849,53.160465 936.547180,58.384529 
	C944.239380,60.567299 951.722046,60.752953 959.066223,61.645042 
	C969.307678,62.889069 979.596313,63.739796 989.855164,64.847298 
	C994.862122,65.387817 995.643066,66.655441 994.222412,71.340927 
	C991.033936,81.856346 987.724060,92.337181 984.716553,102.904068 
	C983.636902,106.697289 981.645569,109.224800 978.221313,111.212540 
	C930.683960,138.807037 883.275635,166.624939 835.633728,194.037033 
	C829.243347,197.713928 824.972961,202.904358 820.728943,208.407211 
	C799.568848,235.843567 778.454590,263.315369 757.357849,290.800446 
	C752.820679,296.711609 753.801208,300.015594 760.927429,302.765167 
	C788.738403,313.495636 816.561035,324.195801 844.400452,334.852264 
	C852.182800,337.831238 854.778564,345.259979 858.754822,351.443604 
	C860.005127,353.388092 857.654968,354.457764 856.332397,355.718750 
	C848.072388,363.594330 837.419189,363.913208 827.058044,365.193756 
	C783.287537,370.603607 739.517517,376.017212 695.745056,381.411438 
	C692.336304,381.831543 689.514282,383.083923 686.955627,385.562164 
	C661.466797,410.250092 635.535950,434.493896 610.490295,459.621094 
	C600.461792,469.682343 588.196228,475.115875 575.971680,481.031281 
	C555.732788,490.824829 535.369690,500.361725 515.061890,510.012939 
	C512.172424,511.386139 509.374084,512.064392 505.967041,511.576721 
	C457.696259,504.667816 409.399567,497.939728 361.106598,491.186371 
	C359.089722,490.904327 357.258209,490.367737 355.595459,489.087891 
	C321.011536,462.469147 286.438232,435.836365 251.775879,409.319946 
	C245.472382,404.497803 243.128952,397.198944 239.420517,390.802124 
	C216.759369,351.713226 198.093124,310.577515 177.869888,270.235962 
	C169.644226,253.827316 158.095673,239.427383 148.175888,224.038193 
	C142.400116,215.077881 136.256744,206.352234 130.581848,197.330368 
	C128.558197,194.113220 126.162376,192.276840 122.470406,191.471573 
	C97.906380,186.113800 73.370667,180.626068 48.829987,175.161591 
	C46.392574,174.618851 43.992401,173.910172 41.558380,173.350555 
	C39.732262,172.930710 37.705318,172.598465 37.498009,170.335953 
	C37.260578,167.744736 39.535358,167.103271 41.372845,166.455811 
	C46.711430,164.574677 52.078064,162.765930 57.474243,161.056793 
	C77.322739,154.770218 97.170029,148.478439 117.060295,142.326096 
	C121.374382,140.991699 124.678207,138.753128 127.471001,135.126419 
	C138.243179,121.137772 149.282532,107.355156 160.161713,93.448357 
	C162.470703,90.496780 165.195663,88.224815 168.565842,86.558083 
	C186.334625,77.770470 204.081741,68.938301 221.787292,60.024155 
	C225.194199,58.308887 228.479492,57.925606 232.335007,58.316734 
	C249.059082,60.013332 265.829559,61.248596 282.578674,62.703259 
	C298.491821,64.085312 314.396698,65.563484 330.311462,66.926086 
	C334.044861,67.245743 336.744446,69.581070 339.662689,71.413986 
	C360.959229,84.790092 382.211578,98.236809 403.440918,111.719444 
	C406.868683,113.896408 410.512238,115.314934 414.451080,116.254768 
	C450.250214,124.796661 486.000671,133.544708 521.828613,141.963058 
	C565.329590,152.184265 607.544861,166.781876 650.359802,179.336502 
	C651.797852,179.758194 653.331177,179.998962 654.649414,180.663010 
	C668.528687,187.654343 682.381165,182.401260 696.191833,180.516617 
	C705.090759,179.302246 713.893372,177.396103 722.768799,175.986649 
	C725.350891,175.576584 727.470642,174.573807 729.516418,173.048126 
	C772.782104,140.781921 816.063599,108.536949 859.349487,76.297852 
	C870.971497,67.641815 882.709839,59.138592 894.216370,50.332138 
	C900.362610,45.628181 907.862122,45.364750 915.177551,43.073151 
M549.665039,334.155396 
	C559.262390,326.684937 569.016052,319.404449 578.404846,311.680450 
	C585.191956,306.096741 593.440430,302.019989 598.386353,294.476868 
	C614.007996,270.652008 629.369629,246.656540 644.821472,222.720398 
	C645.524353,221.631668 646.528137,220.626907 646.161621,219.018204 
	C644.636536,217.607971 642.620728,217.527161 640.668701,217.244797 
	C625.021484,214.981491 609.374329,212.718170 593.728760,210.443802 
	C587.621887,209.556061 582.123169,209.442169 576.167908,213.015625 
	C509.603760,252.957489 442.822754,292.537872 376.115234,332.241058 
	C374.621307,333.130219 372.733032,333.686798 372.144684,335.744507 
	C373.535797,337.271210 375.470703,337.281677 377.196625,337.649963 
	C386.313965,339.595703 395.449677,341.455811 404.582703,343.327698 
	C438.180145,350.213867 471.793213,357.025452 505.356506,364.074127 
	C508.901184,364.818512 511.379944,364.051117 514.031189,361.959381 
	C525.671936,352.775269 537.395447,343.696106 549.665039,334.155396 
M160.482315,193.227295 
	C188.102859,214.696609 215.773712,236.101837 243.289993,257.703979 
	C247.445435,260.966278 250.944901,262.283508 256.309265,260.087036 
	C270.328491,254.346710 284.640503,249.319977 298.851532,244.051224 
	C300.790283,243.332443 302.911560,241.690491 304.831451,243.799805 
	C306.521210,245.656311 305.021515,247.564850 304.295563,249.362823 
	C302.363007,254.149261 300.313263,258.890045 298.472168,263.710846 
	C297.809875,265.444946 296.389709,267.277649 298.179504,269.464630 
	C300.041107,269.409729 301.502747,268.230865 303.010193,267.296753 
	C314.054474,260.453125 324.976257,253.405334 336.142914,246.768921 
	C340.857483,243.967041 343.820831,240.286179 345.701477,235.194077 
	C353.488708,214.108673 361.360565,193.051971 369.515808,172.107193 
	C371.120026,167.987228 370.514771,165.331802 367.456360,162.417435 
	C359.015106,154.373840 350.690094,146.203949 342.483093,137.921555 
	C339.951141,135.366348 337.175842,133.428802 333.877563,132.120972 
	C315.147034,124.693939 296.411469,117.279335 277.706146,109.789299 
	C275.153931,108.767349 272.693695,108.431870 269.937805,108.762138 
	C256.222595,110.405746 242.478714,111.809799 228.762314,113.444069 
	C220.907303,114.379974 213.065384,114.481270 205.894409,119.333221 
	C192.797745,128.194550 179.095901,136.160553 165.663467,144.527298 
	C163.059814,146.149048 160.533829,147.895508 157.904022,149.629272 
	C159.198212,151.052734 160.198059,150.549683 161.115372,150.363220 
	C176.132065,147.310974 191.142670,144.228851 206.158661,141.173203 
	C209.809143,140.430359 213.015091,138.884598 216.084351,136.720398 
	C226.810577,129.157120 239.609573,130.405014 248.691956,139.972244 
	C251.312302,142.732483 254.040192,143.948227 257.864410,143.907867 
	C274.859589,143.728455 291.857971,143.863998 308.853821,143.721283 
	C312.204559,143.693146 314.504456,144.755753 316.371643,147.547165 
	C321.095337,154.608963 325.880524,161.637299 330.893127,168.494797 
	C333.207397,171.660812 333.052521,174.248917 331.159271,177.579971 
	C324.987640,188.438400 319.070038,199.443161 313.182831,210.460083 
	C311.565552,213.486481 309.346741,215.233063 305.986511,215.983688 
	C294.942230,218.450897 283.881836,220.882355 272.941010,223.758759 
	C268.366150,224.961502 264.650970,224.137772 260.583557,222.052109 
	C235.832550,209.360458 210.983963,196.858963 186.154022,184.321564 
	C184.237427,183.353836 182.298172,182.175186 180.020432,182.515533 
	C173.190170,183.536087 166.882751,186.136673 160.713684,189.107666 
	C158.910126,189.976242 157.936600,191.116806 160.482315,193.227295 
M323.259857,365.235352 
	C311.386566,352.180328 299.546417,339.094910 287.609863,326.097992 
	C285.431122,323.725769 284.555054,321.241821 284.667419,317.998535 
	C284.961334,309.516327 285.408478,301.055786 286.412720,292.625885 
	C286.631989,290.785034 286.609467,288.960052 284.540955,287.626465 
	C279.646759,289.789551 276.037140,293.787659 272.126190,297.264130 
	C265.312317,303.321106 257.020111,307.961517 251.977951,315.727142 
	C244.187088,327.726074 237.136368,340.203278 229.583221,352.360535 
	C227.608826,355.538452 227.240494,358.137634 229.243713,361.510681 
	C234.001343,369.521667 239.446655,377.358917 242.672333,385.991882 
	C247.931183,400.066376 257.999786,406.125854 271.934113,409.322662 
	C287.467163,412.886292 302.376770,419.226898 317.940948,422.580109 
	C337.429413,426.778748 357.306854,429.173889 377.020203,432.323395 
	C378.604034,432.576447 380.326782,433.182861 382.308228,430.418121 
	C362.897675,408.981262 343.323090,387.363220 323.259857,365.235352 
M909.361206,78.902336 
	C861.505371,108.332138 813.649475,137.761948 765.793640,167.191742 
	C766.075195,167.767395 766.356750,168.343048 766.638367,168.918701 
	C772.191223,168.071762 777.743591,167.221008 783.297302,166.379929 
	C785.231689,166.087006 787.411560,165.080719 788.949036,166.885757 
	C790.760254,169.012177 788.731567,170.923416 788.033630,172.859360 
	C786.829956,176.197830 784.185120,178.958832 783.445679,184.016113 
	C850.523682,145.705292 916.581177,107.977318 983.627930,69.684364 
	C980.366577,69.118141 978.303101,68.623878 976.211243,68.419281 
	C964.626404,67.286186 952.952087,66.746277 941.476868,64.935577 
	C934.876282,63.894054 929.902100,65.758675 924.800842,69.256523 
	C920.000732,72.547928 914.925476,75.437996 909.361206,78.902336 
M527.321289,459.269073 
	C485.417175,452.723572 443.513031,446.178070 401.353516,439.592682 
	C401.482056,442.528168 403.030090,442.754822 404.091217,443.398010 
	C437.251740,463.499207 470.475311,483.497375 503.527710,503.774567 
	C507.423767,506.164734 510.474152,506.459473 514.476562,504.536713 
	C536.977661,493.727356 559.569458,483.107086 582.106201,472.371643 
	C583.525208,471.695740 585.340027,471.349762 586.186523,468.510895 
	C566.746582,465.440033 547.469849,462.394958 527.321289,459.269073 
M590.043884,169.560715 
	C613.481323,185.441010 633.483032,206.199783 659.929443,217.884354 
	C668.999634,221.891785 677.329285,227.689285 685.691040,233.138809 
	C689.957458,235.919266 692.142700,235.296783 694.622620,230.987366 
	C702.510071,217.281143 710.732361,203.767792 718.802490,190.166367 
	C720.354004,187.551468 721.802307,184.875351 723.681580,181.548828 
	C709.970642,183.011856 697.435486,185.553284 684.814636,187.549576 
	C678.660828,188.522949 672.578735,191.246841 666.162720,189.333954 
	C651.486755,184.958450 636.837341,180.493927 622.172729,176.080444 
	C610.315552,172.511932 598.451843,168.965149 586.591064,165.408737 
	C586.458740,165.712616 586.326477,166.016495 586.194153,166.320374 
	C587.291321,167.272964 588.388489,168.225540 590.043884,169.560715 
M636.807434,379.061066 
	C650.783813,378.635529 664.800354,378.731323 678.726929,377.658905 
	C698.252625,376.155334 717.941101,375.388550 736.800232,369.094360 
	C746.199646,365.957306 755.691345,363.096649 765.141296,360.110962 
	C762.401184,359.052399 759.815613,358.943512 757.241455,359.068787 
	C722.003540,360.784119 686.767700,362.544678 651.530090,364.266846 
	C629.754150,365.331116 607.975952,366.349884 586.198608,367.386475 
	C584.370483,367.473511 582.047852,367.236115 581.440613,369.292694 
	C580.161011,373.626434 576.328003,375.203339 573.344238,377.742828 
	C572.172852,378.739807 570.290161,379.198761 570.199646,381.195129 
	C571.359680,382.348999 572.762817,382.043640 574.031860,382.000336 
	C586.843689,381.563324 599.656677,381.140594 612.463135,380.571991 
	C620.270630,380.225342 628.067078,379.630859 636.807434,379.061066 
M783.644104,248.163361 
	C793.838440,234.937271 804.032837,221.711182 814.227173,208.485077 
	C812.853271,208.018280 812.210876,208.160843 811.666687,208.474014 
	C792.039978,219.770203 772.423401,231.084000 752.801819,242.389160 
	C751.143860,243.344406 750.064575,244.799515 749.215698,246.450211 
	C746.398560,251.928497 743.603149,257.418030 740.790344,262.898560 
	C739.982483,264.472534 739.294067,266.163208 741.324707,267.208405 
	C745.346985,269.278748 746.238281,273.221252 747.673401,276.946106 
	C749.017822,280.435577 749.977295,284.172424 753.129272,287.613007 
	C763.306946,274.446045 773.250305,261.582153 783.644104,248.163361 
M482.372375,200.229919 
	C461.358002,198.314468 440.336029,196.476669 419.335419,194.420609 
	C414.927460,193.989044 411.311798,194.761398 407.822174,197.651184 
	C398.857574,205.074966 389.665863,212.224213 380.585785,219.509186 
	C379.751190,220.178772 378.451385,220.722488 379.415710,222.801041 
	C423.327271,216.846527 467.394653,210.870865 511.462036,204.895203 
	C511.428680,204.372650 511.395355,203.850113 511.362030,203.327560 
	C502.006165,202.313690 492.650299,201.299820 482.372375,200.229919 
M66.458672,163.869202 
	C64.877945,164.558716 62.979248,164.668198 61.447609,166.527878 
	C94.417099,168.425751 127.151100,165.359863 159.479141,171.897919 
	C159.188339,170.604782 158.839890,170.018234 158.324570,169.729126 
	C146.841125,163.286438 135.588898,156.527405 126.388580,146.892883 
	C124.886154,145.319550 123.185234,145.606049 121.324448,146.206238 
	C103.275742,152.027634 85.212303,157.803406 66.458672,163.869202 
M786.689758,318.802490 
	C783.071777,316.892212 779.445374,315.008575 775.037354,314.822754 
	C775.114197,320.183136 778.888611,324.289490 778.732239,329.941071 
	C758.604553,333.102753 738.620361,336.241913 718.636108,339.381042 
	C718.686035,339.845703 718.736023,340.310333 718.785950,340.774994 
	C720.582703,340.774994 722.379761,340.799561 724.176086,340.771240 
	C745.635559,340.433105 767.094788,340.087555 788.554077,339.740723 
	C789.219238,339.729980 789.885315,339.702209 790.548523,339.651154 
	C793.108948,339.454132 794.345398,338.057251 793.346680,335.644836 
	C791.121094,330.268951 790.053650,324.462830 786.689758,318.802490 
M228.205658,161.664566 
	C234.767761,162.872208 239.922119,160.892578 243.529892,155.101257 
	C245.804703,151.449646 244.683823,147.970810 242.915436,144.751831 
	C241.217865,141.661728 238.192673,141.577484 235.036514,142.385620 
	C233.276031,142.836395 231.284348,142.655960 229.676987,143.381012 
	C225.238235,145.383270 218.541183,146.421204 217.929031,151.282959 
	C217.321777,156.105774 222.762619,159.368362 228.205658,161.664566 
z"/>
  <path d="M486.986755,327.050507 
	C476.866852,321.716858 467.075073,316.557617 455.792236,310.612793 
	C474.357483,298.350739 491.569702,286.982330 510.278534,274.625458 
	C511.696899,297.254608 513.019287,318.352020 514.341675,339.449463 
	C513.833984,339.735107 513.326355,340.020752 512.818665,340.306396 
	C504.317383,335.945923 495.816101,331.585419 486.986755,327.050507 
z"/>
  <path d="M541.746765,282.181519 
	C552.358276,286.889618 562.763000,291.152283 574.110291,297.102875 
	C558.700684,308.976685 544.256287,320.106689 528.750488,332.054565 
	C524.790100,311.918152 522.133850,292.904633 519.257935,272.338013 
	C527.531494,275.952515 534.468933,278.983307 541.746765,282.181519 
z"/>
  <path d="M542.391785,269.702698 
	C539.997559,268.934326 537.864014,268.512024 535.702698,266.519043 
	C548.936768,253.900223 562.482300,242.164886 577.209106,229.452896 
	C581.922302,248.551071 586.265686,266.150757 591.015686,285.398102 
	C573.877625,279.869385 558.319275,274.850250 542.391785,269.702698 
z"/>
  <path d="M619.617798,225.992889 
	C621.706116,226.175858 623.411682,226.121552 625.472107,228.156662 
	C618.398254,239.017303 611.241821,250.004578 603.344482,262.129486 
	C596.383362,249.712494 590.949280,238.115204 585.331421,225.601700 
	C597.184143,223.707855 608.186157,226.530014 619.617798,225.992889 
z"/>
 </clipPath>
</defs>
<g clip-path="url(#dop-clip)">
 <rect x="0" y="0" width="1024" height="544" fill="url(#dop-base)"/>
 <rect x="0" y="0" width="1024" height="544" fill="url(#dop-sweep)" opacity="0.5"/>
 <rect x="0" y="0" width="1024" height="544" fill="url(#dop-tint)" opacity="0.3"/>
</g>
</svg>
