<!-- Generated by tools/render-readme-evidence-chart.js. -->
<svg xmlns="http://www.w3.org/2000/svg" width="1200" height="1138" viewBox="0 0 1200 1138" role="img" aria-labelledby="title desc">
  <title id="title">Doppler and Transformers.js WebGPU throughput</title>
  <desc id="desc">Mean throughput, one-standard-deviation bands, and observed ranges for nine browser WebGPU comparisons on Apple M3 Metal and Radeon 8060S Vulkan. Higher throughput is farther right. Retrieval bands are reciprocal transforms of receipt latency statistics.</desc>
  <defs><style>
    text{fill:#111;font-family:Inter,"Segoe UI","Helvetica Neue",Arial,sans-serif;letter-spacing:0}.mono{font-family:SFMono-Regular,Menlo,Consolas,"Liberation Mono",monospace}.legend{font-size:16px;font-weight:750;fill:#495057}.column{font-size:14px;font-weight:800;fill:#6b7280}.section{font-size:22px;font-weight:800}.section-detail{font-size:14px;font-weight:750;fill:#495057}.model{font-size:20px;font-weight:800}.detail{font-size:15px;font-weight:650;fill:#6b7280}.dv,.tv{font-size:17px;font-weight:800}.dv{fill:#6d28d9}.tv{fill:#9a6700}.ratio{font-size:28px;font-weight:800;fill:#6d28d9}.footer{font-size:14px;font-weight:650;fill:#495057}.scale{font-size:11px;font-weight:650;fill:#6b7280}.band{fill:#f4f4f5}.row{stroke:#e5e7eb}.axis{stroke:#e5e7eb;stroke-width:3}.divider{stroke:#e5e7eb}.d-box{fill:#ede9fe;stroke:#6d28d9;stroke-width:3}.t-box{fill:#fff4cc;stroke:#ffb000;stroke-width:3}.d-mark{fill:none;stroke:#6d28d9;stroke-width:3}.t-mark{fill:none;stroke:#ffb000;stroke-width:3}.d-dot{fill:#6d28d9}.t-dot{fill:#ffb000}.receipt:hover{text-decoration:underline}
  </style></defs>
  <rect width="1200" height="1138" fill="#fff"/>

  <circle cx="39" cy="34" r="8" fill="#6d28d9"/><text x="56" y="40" class="legend">Doppler</text>
  <circle cx="162" cy="34" r="8" fill="#ffb000"/><text x="179" y="40" class="legend">Transformers.js</text>
  <text x="1170" y="40" text-anchor="end" class="legend">BAND +/- 1 SD / DOT MEAN / WHISKER MIN-MAX</text>
  <path d="M30 64H1170" stroke="#111"/>
  <text x="30" y="92" class="column">MODEL</text>
  <text x="300" y="92" class="column">MEAN RATE</text>
  <text x="575" y="92" class="column">RATE DISTRIBUTION / FASTER &gt;</text>
  <text x="1090" y="92" text-anchor="middle" class="column">LEAD</text>

  <rect x="30" y="110" width="1140" height="46" class="band"/>
  <text x="44" y="141" class="section">Apple M3 / Metal</text>
  <text x="1156" y="140" text-anchor="end" class="section-detail">4 MODELS</text>
  <g class="benchmark-row" data-receipt="benchmarks/vendors/results/compare_20260709T154633.json">
<title>Qwen 3.5 0.8B text. Doppler 38.43 tok/s, range 38.08-38.77. Transformers.js 27.09 tok/s, range 25.96-28.78.</title>
<a href="https://github.com/clocksmith/doppler/blob/main/benchmarks/vendors/results/compare_20260709T154633.json" target="_blank">
<text x="30" y="191" class="model receipt">Qwen 3.5 0.8B text</text>
</a>
<text x="30" y="222" class="detail">n=3</text>
<text x="300" y="191" class="dv mono">38.43 tok/s</text>
<text x="300" y="224" class="tv mono">27.09 tok/s</text>
<path d="M575 186H955" class="axis"/><path d="M911.2 186H928.8 M911.2 177V195 M928.8 177V195" class="d-mark"/><rect x="911.2" y="176" width="17.6" height="20" rx="2" class="d-box"/><circle cx="919.9" cy="186" r="5" class="d-dot"/>
<path d="M575 219H955" class="axis"/><path d="M601.2 219H673.4 M601.2 210V228 M673.4 210V228" class="t-mark"/><rect x="601.2" y="209" width="67.1" height="20" rx="2" class="t-box"/><circle cx="630.2" cy="219" r="5" class="t-dot"/>
<text x="575" y="246" class="scale mono">24.9</text>
<text x="955" y="246" text-anchor="end" class="scale mono">39.8</text>
<path d="M995 170V238" class="divider"/>
<text x="1090" y="215" text-anchor="middle" class="ratio">1.42x</text>
<path d="M30 253H1170" class="row"/>
</g>
  <g class="benchmark-row" data-receipt="benchmarks/vendors/results/embedding_compare_qwen-3-embedding-0-6b-q4k-ehf16-af32_20260709T180853.json">
<title>Qwen 3 Embedding 0.6B. Doppler 22.83 embedding/s, range 22.47-23.20. Transformers.js 19.38 embedding/s, range 18.74-19.67.</title>
<a href="https://github.com/clocksmith/doppler/blob/main/benchmarks/vendors/results/embedding_compare_qwen-3-embedding-0-6b-q4k-ehf16-af32_20260709T180853.json" target="_blank">
<text x="30" y="279" class="model receipt">Qwen 3 Embedding 0.6B</text>
</a>
<text x="30" y="310" class="detail">n=15</text>
<text x="300" y="279" class="dv mono">22.83 embedding/s</text>
<text x="300" y="312" class="tv mono">19.38 embedding/s</text>
<path d="M575 274H955" class="axis"/><path d="M875.2 274H928.8 M875.2 265V283 M928.8 265V283" class="d-mark"/><rect x="886.0" y="264" width="31.9" height="20" rx="2" class="d-box"/><circle cx="901.8" cy="274" r="5" class="d-dot"/>
<path d="M575 307H955" class="axis"/><path d="M601.2 307H669.4 M601.2 298V316 M669.4 298V316" class="t-mark"/><rect x="629.9" y="297" width="36.2" height="20" rx="2" class="t-box"/><circle cx="648.0" cy="307" r="5" class="t-dot"/>
<text x="575" y="334" class="scale mono">18.4</text>
<text x="955" y="334" text-anchor="end" class="scale mono">23.6</text>
<path d="M995 258V326" class="divider"/>
<text x="1090" y="303" text-anchor="middle" class="ratio">1.18x</text>
<path d="M30 341H1170" class="row"/>
</g>
  <g class="benchmark-row" data-receipt="benchmarks/vendors/results/rerank_compare_qwen-3-reranker-0-6b-q4k-ehf16-af32_20260709T192830.json">
<title>Qwen 3 Reranker 0.6B. Doppler 2.14 rerank/s, range 2.09-2.24. Transformers.js 2.05 rerank/s, range 2.02-2.06.</title>
<a href="https://github.com/clocksmith/doppler/blob/main/benchmarks/vendors/results/rerank_compare_qwen-3-reranker-0-6b-q4k-ehf16-af32_20260709T192830.json" target="_blank">
<text x="30" y="367" class="model receipt">Qwen 3 Reranker 0.6B</text>
</a>
<text x="30" y="398" class="detail">n=3</text>
<text x="300" y="367" class="dv mono">2.14 rerank/s</text>
<text x="300" y="400" class="tv mono">2.05 rerank/s</text>
<path d="M575 362H955" class="axis"/><path d="M707.8 362H928.8 M707.8 353V371 M928.8 353V371" class="d-mark"/><rect x="707.8" y="352" width="200.6" height="20" rx="2" class="d-box"/><circle cx="781.7" cy="362" r="5" class="d-dot"/>
<path d="M575 395H955" class="axis"/><path d="M601.2 395H663.3 M601.2 386V404 M663.3 386V404" class="t-mark"/><rect x="606.3" y="385" width="56.9" height="20" rx="2" class="t-box"/><circle cx="640.5" cy="395" r="5" class="t-dot"/>
<text x="575" y="422" class="scale mono">2.00</text>
<text x="955" y="422" text-anchor="end" class="scale mono">2.26</text>
<path d="M995 346V414" class="divider"/>
<text x="1090" y="391" text-anchor="middle" class="ratio">1.05x</text>
<path d="M30 429H1170" class="row"/>
</g>
  <g class="benchmark-row" data-receipt="benchmarks/vendors/results/qwen35-2b-metal-paired-p256-d512-20260710.json">
<title>Qwen 3.5 2B text. Doppler 32.94 tok/s, range 25.10-39.47. Transformers.js 31.65 tok/s, range 24.00-37.91.</title>
<a href="https://github.com/clocksmith/doppler/blob/main/benchmarks/vendors/results/qwen35-2b-metal-paired-p256-d512-20260710.json" target="_blank">
<text x="30" y="455" class="model receipt">Qwen 3.5 2B text</text>
</a>
<text x="30" y="486" class="detail">n=20 / local artifact</text>
<text x="300" y="455" class="dv mono">32.94 tok/s</text>
<text x="300" y="488" class="tv mono">31.65 tok/s</text>
<path d="M575 450H955" class="axis"/><path d="M624.6 450H928.8 M624.6 441V459 M928.8 441V459" class="d-mark"/><rect x="661.7" y="440" width="257.6" height="20" rx="2" class="d-box"/><circle cx="790.5" cy="450" r="5" class="d-dot"/>
<path d="M575 483H955" class="axis"/><path d="M601.2 483H895.8 M601.2 474V492 M895.8 474V492" class="t-mark"/><rect x="643.8" y="473" width="238.9" height="20" rx="2" class="t-box"/><circle cx="763.2" cy="483" r="5" class="t-dot"/>
<text x="575" y="510" class="scale mono">22.8</text>
<text x="955" y="510" text-anchor="end" class="scale mono">40.7</text>
<path d="M995 434V502" class="divider"/>
<text x="1090" y="479" text-anchor="middle" class="ratio">1.04x</text>
<path d="M30 517H1170" class="row"/>
</g>
  <rect x="30" y="540" width="1140" height="46" class="band"/>
  <text x="44" y="571" class="section">Radeon 8060S / Vulkan</text>
  <text x="1156" y="570" text-anchor="end" class="section-detail">5 MODELS</text>
  <g class="benchmark-row" data-receipt="benchmarks/vendors/results/compare_20260707T153509.json">
<title>Qwen 3.5 0.8B text. Doppler 67.79 tok/s, range 66.56-68.78. Transformers.js 41.89 tok/s, range 40.03-43.23.</title>
<a href="https://github.com/clocksmith/doppler/blob/main/benchmarks/vendors/results/compare_20260707T153509.json" target="_blank">
<text x="30" y="621" class="model receipt">Qwen 3.5 0.8B text</text>
</a>
<text x="30" y="652" class="detail">n=15</text>
<text x="300" y="621" class="dv mono">67.79 tok/s</text>
<text x="300" y="654" class="tv mono">41.89 tok/s</text>
<path d="M575 616H955" class="axis"/><path d="M903.4 616H928.8 M903.4 607V625 M928.8 607V625" class="d-mark"/><rect x="909.7" y="606" width="15.7" height="20" rx="2" class="d-box"/><circle cx="917.5" cy="616" r="5" class="d-dot"/>
<path d="M575 649H955" class="axis"/><path d="M601.2 649H637.7 M601.2 640V658 M637.7 640V658" class="t-mark"/><rect x="612.3" y="639" width="20.2" height="20" rx="2" class="t-box"/><circle cx="622.4" cy="649" r="5" class="t-dot"/>
<text x="575" y="676" class="scale mono">37.7</text>
<text x="955" y="676" text-anchor="end" class="scale mono">71.1</text>
<path d="M995 600V668" class="divider"/>
<text x="1090" y="645" text-anchor="middle" class="ratio">1.62x</text>
<path d="M30 683H1170" class="row"/>
</g>
  <g class="benchmark-row" data-receipt="benchmarks/vendors/results/embedding_compare_qwen-3-embedding-0-6b-q4k-ehf16-af32_20260710T011455.json">
<title>Qwen 3 Embedding 0.6B. Doppler 33.88 embedding/s, range 32.26-35.46. Transformers.js 6.72 embedding/s, range 5.38-7.16.</title>
<a href="https://github.com/clocksmith/doppler/blob/main/benchmarks/vendors/results/embedding_compare_qwen-3-embedding-0-6b-q4k-ehf16-af32_20260710T011455.json" target="_blank">
<text x="30" y="709" class="model receipt">Qwen 3 Embedding 0.6B</text>
</a>
<text x="30" y="740" class="detail">n=15</text>
<text x="300" y="709" class="dv mono">33.88 embedding/s</text>
<text x="300" y="742" class="tv mono">6.72 embedding/s</text>
<path d="M575 704H955" class="axis"/><path d="M893.9 704H928.8 M893.9 695V713 M928.8 695V713" class="d-mark"/><rect x="901.8" y="694" width="20.1" height="20" rx="2" class="d-box"/><circle cx="911.6" cy="704" r="5" class="d-dot"/>
<path d="M575 737H955" class="axis"/><path d="M601.2 737H620.6 M601.2 728V746 M620.6 728V746" class="t-mark"/><rect x="611.2" y="727" width="9.2" height="20" rx="2" class="t-box"/><circle cx="615.8" cy="737" r="5" class="t-dot"/>
<text x="575" y="764" class="scale mono">2.98</text>
<text x="955" y="764" text-anchor="end" class="scale mono">37.9</text>
<path d="M995 688V756" class="divider"/>
<text x="1090" y="733" text-anchor="middle" class="ratio">5.04x</text>
<path d="M30 771H1170" class="row"/>
</g>
  <g class="benchmark-row" data-receipt="benchmarks/vendors/results/rerank_compare_qwen-3-reranker-0-6b-q4k-ehf16-af32_20260710T014450.json">
<title>Qwen 3 Reranker 0.6B. Doppler 3.59 rerank/s, range 3.45-3.72. Transformers.js 2.13 rerank/s, range 2.02-2.21.</title>
<a href="https://github.com/clocksmith/doppler/blob/main/benchmarks/vendors/results/rerank_compare_qwen-3-reranker-0-6b-q4k-ehf16-af32_20260710T014450.json" target="_blank">
<text x="30" y="797" class="model receipt">Qwen 3 Reranker 0.6B</text>
</a>
<text x="30" y="828" class="detail">n=15</text>
<text x="300" y="797" class="dv mono">3.59 rerank/s</text>
<text x="300" y="830" class="tv mono">2.13 rerank/s</text>
<path d="M575 792H955" class="axis"/><path d="M875.9 792H928.8 M875.9 783V801 M928.8 783V801" class="d-mark"/><rect x="888.8" y="782" width="29.8" height="20" rx="2" class="d-box"/><circle cx="903.4" cy="792" r="5" class="d-dot"/>
<path d="M575 825H955" class="axis"/><path d="M601.2 825H638.1 M601.2 816V834 M638.1 816V834" class="t-mark"/><rect x="611.4" y="815" width="21.8" height="20" rx="2" class="t-box"/><circle cx="622.4" cy="825" r="5" class="t-dot"/>
<text x="575" y="852" class="scale mono">1.88</text>
<text x="955" y="852" text-anchor="end" class="scale mono">3.86</text>
<path d="M995 776V844" class="divider"/>
<text x="1090" y="821" text-anchor="middle" class="ratio">1.69x</text>
<path d="M30 859H1170" class="row"/>
</g>
  <g class="benchmark-row" data-receipt="benchmarks/vendors/results/compare_20260707T161623.json">
<title>Qwen 3.5 2B text. Doppler 55.75 tok/s, range 55.17-56.28. Transformers.js 41.04 tok/s, range 31.28-42.72.</title>
<a href="https://github.com/clocksmith/doppler/blob/main/benchmarks/vendors/results/compare_20260707T161623.json" target="_blank">
<text x="30" y="885" class="model receipt">Qwen 3.5 2B text</text>
</a>
<text x="30" y="916" class="detail">n=15 / local artifact</text>
<text x="300" y="885" class="dv mono">55.75 tok/s</text>
<text x="300" y="918" class="tv mono">41.04 tok/s</text>
<path d="M575 880H955" class="axis"/><path d="M914.3 880H928.8 M914.3 871V889 M928.8 871V889" class="d-mark"/><rect x="917.7" y="870" width="8.6" height="20" rx="2" class="d-box"/><circle cx="922.0" cy="880" r="5" class="d-dot"/>
<path d="M575 913H955" class="axis"/><path d="M601.2 913H751.2 M601.2 904V922 M751.2 904V922" class="t-mark"/><rect x="692.8" y="903" width="58.3" height="20" rx="2" class="t-box"/><circle cx="729.2" cy="913" r="5" class="t-dot"/>
<text x="575" y="940" class="scale mono">29.3</text>
<text x="955" y="940" text-anchor="end" class="scale mono">58.3</text>
<path d="M995 864V932" class="divider"/>
<text x="1090" y="909" text-anchor="middle" class="ratio">1.36x</text>
<path d="M30 947H1170" class="row"/>
</g>
  <g class="benchmark-row" data-receipt="benchmarks/vendors/results/compare_20260707T170557.json">
<title>Gemma 4 E2B INT4-PLE. Doppler 16.26 tok/s, range 15.92-16.48. Transformers.js 9.30 tok/s, range 9.03-9.61.</title>
<a href="https://github.com/clocksmith/doppler/blob/main/benchmarks/vendors/results/compare_20260707T170557.json" target="_blank">
<text x="30" y="973" class="model receipt">Gemma 4 E2B INT4-PLE</text>
</a>
<text x="30" y="1004" class="detail">n=15 / local artifact</text>
<text x="300" y="973" class="dv mono">16.26 tok/s</text>
<text x="300" y="1006" class="tv mono">9.30 tok/s</text>
<path d="M575 968H955" class="axis"/><path d="M904.0 968H928.8 M904.0 959V977 M928.8 959V977" class="d-mark"/><rect x="910.5" y="958" width="17.3" height="20" rx="2" class="d-box"/><circle cx="919.2" cy="968" r="5" class="d-dot"/>
<path d="M575 1001H955" class="axis"/><path d="M601.2 1001H626.8 M601.2 992V1010 M626.8 992V1010" class="t-mark"/><rect x="605.4" y="991" width="15.2" height="20" rx="2" class="t-box"/><circle cx="613.0" cy="1001" r="5" class="t-dot"/>
<text x="575" y="1028" class="scale mono">8.43</text>
<text x="955" y="1028" text-anchor="end" class="scale mono">17.1</text>
<path d="M995 952V1020" class="divider"/>
<text x="1090" y="997" text-anchor="middle" class="ratio">1.75x</text>
<path d="M30 1035H1170" class="row"/>
</g>

  <path d="M30 1056H1170" stroke="#111"/>
  <text x="30" y="1085" class="footer">Per-row throughput scale / higher is right / band +/- 1 SD / whisker min-max.</text>
  <text x="30" y="1112" class="footer">Retrieval bands invert receipt latency statistics; model names open the source receipt.</text>
  <text x="1170" y="1112" text-anchor="end" class="footer mono">9 RESULTS</text>
</svg>
