<svg xmlns="http://www.w3.org/2000/svg" width="1280" height="930" viewBox="0 0 1280 930" role="img" aria-labelledby="title desc">
  <title id="title">Doppler and Transformers.js browser WebGPU throughput</title>
  <desc id="desc">Reported throughput and receipt-reported min-to-max rate ranges for nine browser WebGPU comparisons on Apple M3 Metal and Radeon 8060S Vulkan. Higher is faster.</desc>
  <defs><style>
    text{fill:#111;font-family:Inter,"Segoe UI","Helvetica Neue",Arial,sans-serif;letter-spacing:0}.mono{font-family:SFMono-Regular,Menlo,Consolas,"Liberation Mono",monospace}.legend{font-size:12px;font-weight:750;fill:#495057}.column{font-size:11px;font-weight:800;fill:#6b7280}.section{font-size:18px;font-weight:800}.section-detail{font-size:12px;font-weight:750;fill:#495057}.model{font-size:16px;font-weight:800}.detail{font-size:12px;font-weight:650;fill:#6b7280}.dv,.tv{font-size:13px;font-weight:800}.dv{fill:#6d28d9}.tv{fill:#9a6700}.ratio{font-size:24px;font-weight:800;fill:#6d28d9}.footer{font-size:11px;font-weight:650;fill:#495057}.band{fill:#f4f4f5}.row{stroke:#e5e7eb}.axis{stroke:#e5e7eb;stroke-width:2}.divider{stroke:#e5e7eb}.d-box{fill:#ede9fe;stroke:#6d28d9;stroke-width:2}.t-box{fill:#fff4cc;stroke:#ffb000;stroke-width:2}.d-mark{fill:none;stroke:#6d28d9;stroke-width:2}.t-mark{fill:none;stroke:#ffb000;stroke-width:2}
  </style></defs>
  <rect width="1280" height="930" fill="#fff"/>

  <circle cx="49" cy="32" r="7" fill="#6d28d9"/><text x="65" y="37" class="legend">Doppler</text>
  <circle cx="149" cy="32" r="7" fill="#ffb000"/><text x="165" y="37" class="legend">Transformers.js</text>
  <text x="1238" y="37" text-anchor="end" class="legend">BAND MIN–MAX · CENTER REPORTED RATE</text>
  <path d="M42 56H1238" stroke="#111"/>
  <text x="42" y="82" class="column">MODEL</text><text x="320" y="82" class="column">THROUGHPUT</text>
  <text x="600" y="82" class="column">RECEIPT RATE RANGE · HIGHER IS FASTER →</text><text x="1109" y="82" text-anchor="middle" class="column">RATE RATIO</text>

  <rect x="42" y="94" width="1196" height="38" class="band"/>
  <text x="54" y="120" class="section">Apple M3 · Metal</text><text x="1226" y="119" text-anchor="end" class="section-detail">4 MODELS</text>

  <text x="42" y="164" class="model">Qwen 3.5 0.8B text</text>
  <text x="42" y="189" class="detail">n=3</text>
  <text x="320" y="163" class="dv mono">38.42 tok/s</text>
  <text x="320" y="189" class="tv mono">26.54 tok/s</text>
  <path d="M600 159H970" class="axis"/>
  <path d="M927.3 159H944.5" class="d-mark"/><rect x="927.3" y="152" width="17.2" height="14" class="d-box"/><path d="M927.3 151V167M944.5 151V167M935.7 150V168" class="d-mark"/>
  <path d="M600 185H970" class="axis"/>
  <path d="M625.5 185H695.8" class="t-mark"/><rect x="625.5" y="178" width="70.3" height="14" class="t-box"/><path d="M625.5 177V193M695.8 177V193M640.0 176V194" class="t-mark"/>
  <path d="M1010 148V196" class="divider"/>
  <text x="1109" y="181" text-anchor="middle" class="ratio">1.45x</text>
  <path d="M42 212H1238" class="row"/>

  <text x="42" y="236" class="model">Qwen 3 Embedding 0.6B</text>
  <text x="42" y="261" class="detail">n=15</text>
  <text x="320" y="235" class="dv mono">22.83 embedding/s</text>
  <text x="320" y="261" class="tv mono">19.38 embedding/s</text>
  <path d="M600 231H970" class="axis"/>
  <path d="M892.3 231H944.5" class="d-mark"/><rect x="892.3" y="224" width="52.2" height="14" class="d-box"/><path d="M892.3 223V239M944.5 223V239M917.9 222V240" class="d-mark"/>
  <path d="M600 257H970" class="axis"/>
  <path d="M625.5 257H691.9" class="t-mark"/><rect x="625.5" y="250" width="66.4" height="14" class="t-box"/><path d="M625.5 249V265M691.9 249V265M670.9 248V266" class="t-mark"/>
  <path d="M1010 220V268" class="divider"/>
  <text x="1109" y="253" text-anchor="middle" class="ratio">1.18x</text>
  <path d="M42 284H1238" class="row"/>

  <text x="42" y="308" class="model">Qwen 3 Reranker 0.6B</text>
  <text x="42" y="333" class="detail">n=3</text>
  <text x="320" y="307" class="dv mono">2.14 reranks/s</text>
  <text x="320" y="333" class="tv mono">2.05 reranks/s</text>
  <path d="M600 303H970" class="axis"/>
  <path d="M729.3 303H944.5" class="d-mark"/><rect x="729.3" y="296" width="215.2" height="14" class="d-box"/><path d="M729.3 295V311M944.5 295V311M799.6 294V312" class="d-mark"/>
  <path d="M600 329H970" class="axis"/>
  <path d="M625.5 329H685.9" class="t-mark"/><rect x="625.5" y="322" width="60.4" height="14" class="t-box"/><path d="M625.5 321V337M685.9 321V337M663.6 320V338" class="t-mark"/>
  <path d="M1010 292V340" class="divider"/>
  <text x="1109" y="325" text-anchor="middle" class="ratio">1.05x</text>
  <path d="M42 356H1238" class="row"/>

  <text x="42" y="380" class="model">Qwen 3.5 2B text</text>
  <text x="42" y="405" class="detail">n=20 · local model</text>
  <text x="320" y="379" class="dv mono">33.86 tok/s</text>
  <text x="320" y="405" class="tv mono">32.75 tok/s</text>
  <path d="M600 375H970" class="axis"/>
  <path d="M648.3 375H944.5" class="d-mark"/><rect x="648.3" y="368" width="296.2" height="14" class="d-box"/><path d="M648.3 367V383M944.5 367V383M828.7 366V384" class="d-mark"/>
  <path d="M600 401H970" class="axis"/>
  <path d="M625.5 401H912.4" class="t-mark"/><rect x="625.5" y="394" width="286.9" height="14" class="t-box"/><path d="M625.5 393V409M912.4 393V409M806.0 392V410" class="t-mark"/>
  <path d="M1010 364V412" class="divider"/>
  <text x="1109" y="397" text-anchor="middle" class="ratio">1.03x</text>
  <path d="M42 428H1238" class="row"/>

  <rect x="42" y="440" width="1196" height="38" class="band"/>
  <text x="54" y="466" class="section">Radeon 8060S · Vulkan</text><text x="1226" y="465" text-anchor="end" class="section-detail">5 MODELS</text>

  <text x="42" y="510" class="model">Qwen 3.5 0.8B text</text>
  <text x="42" y="535" class="detail">n=15</text>
  <text x="320" y="509" class="dv mono">69.07 tok/s</text>
  <text x="320" y="535" class="tv mono">41.79 tok/s</text>
  <path d="M600 505H970" class="axis"/>
  <path d="M933.4 505H944.5" class="d-mark"/><rect x="933.4" y="498" width="11.1" height="14" class="d-box"/><path d="M933.4 497V513M944.5 497V513M937.3 496V514" class="d-mark"/>
  <path d="M600 531H970" class="axis"/>
  <path d="M625.5 531H659.9" class="t-mark"/><rect x="625.5" y="524" width="34.4" height="14" class="t-box"/><path d="M625.5 523V539M659.9 523V539M644.4 522V540" class="t-mark"/>
  <path d="M1010 494V542" class="divider"/>
  <text x="1109" y="527" text-anchor="middle" class="ratio">1.65x</text>
  <path d="M42 558H1238" class="row"/>

  <text x="42" y="582" class="model">Qwen 3 Embedding 0.6B</text>
  <text x="42" y="607" class="detail">n=15</text>
  <text x="320" y="581" class="dv mono">33.88 embedding/s</text>
  <text x="320" y="607" class="tv mono">6.69 embedding/s</text>
  <path d="M600 577H970" class="axis"/>
  <path d="M910.5 577H944.5" class="d-mark"/><rect x="910.5" y="570" width="34.0" height="14" class="d-box"/><path d="M910.5 569V585M944.5 569V585M927.7 568V586" class="d-mark"/>
  <path d="M600 603H970" class="axis"/>
  <path d="M625.5 603H644.4" class="t-mark"/><rect x="625.5" y="596" width="18.9" height="14" class="t-box"/><path d="M625.5 595V611M644.4 595V611M639.4 594V612" class="t-mark"/>
  <path d="M1010 566V614" class="divider"/>
  <text x="1109" y="599" text-anchor="middle" class="ratio">5.06x</text>
  <path d="M42 630H1238" class="row"/>

  <text x="42" y="654" class="model">Qwen 3 Reranker 0.6B</text>
  <text x="42" y="679" class="detail">n=15</text>
  <text x="320" y="653" class="dv mono">3.59 reranks/s</text>
  <text x="320" y="679" class="tv mono">2.12 reranks/s</text>
  <path d="M600 649H970" class="axis"/>
  <path d="M892.9 649H944.5" class="d-mark"/><rect x="892.9" y="642" width="51.5" height="14" class="d-box"/><path d="M892.9 641V657M944.5 641V657M919.9 640V658" class="d-mark"/>
  <path d="M600 675H970" class="axis"/>
  <path d="M625.5 675H661.5" class="t-mark"/><rect x="625.5" y="668" width="35.9" height="14" class="t-box"/><path d="M625.5 667V683M661.5 667V683M645.8 666V684" class="t-mark"/>
  <path d="M1010 638V686" class="divider"/>
  <text x="1109" y="671" text-anchor="middle" class="ratio">1.69x</text>
  <path d="M42 702H1238" class="row"/>

  <text x="42" y="726" class="model">Qwen 3.5 2B text</text>
  <text x="42" y="751" class="detail">n=15 · local model</text>
  <text x="320" y="725" class="dv mono">56.50 tok/s</text>
  <text x="320" y="751" class="tv mono">41.50 tok/s</text>
  <path d="M600 721H970" class="axis"/>
  <path d="M931.8 721H944.5" class="d-mark"/><rect x="931.8" y="714" width="12.7" height="14" class="d-box"/><path d="M931.8 713V729M944.5 713V729M940.3 712V730" class="d-mark"/>
  <path d="M600 747H970" class="axis"/>
  <path d="M625.5 747H768.3" class="t-mark"/><rect x="625.5" y="740" width="142.8" height="14" class="t-box"/><path d="M625.5 739V755M768.3 739V755M753.1 738V756" class="t-mark"/>
  <path d="M1010 710V758" class="divider"/>
  <text x="1109" y="743" text-anchor="middle" class="ratio">1.36x</text>
  <path d="M42 774H1238" class="row"/>

  <text x="42" y="798" class="model">Gemma 4 E2B INT4-PLE</text>
  <text x="42" y="823" class="detail">n=15 · local model</text>
  <text x="320" y="797" class="dv mono">16.32 tok/s</text>
  <text x="320" y="823" class="tv mono">9.24 tok/s</text>
  <path d="M600 793H970" class="axis"/>
  <path d="M920.3 793H944.5" class="d-mark"/><rect x="920.3" y="786" width="24.2" height="14" class="d-box"/><path d="M920.3 785V801M944.5 785V801M937.5 784V802" class="d-mark"/>
  <path d="M600 819H970" class="axis"/>
  <path d="M625.5 819H650.4" class="t-mark"/><rect x="625.5" y="812" width="24.9" height="14" class="t-box"/><path d="M625.5 811V827M650.4 811V827M634.5 810V828" class="t-mark"/>
  <path d="M1010 782V830" class="divider"/>
  <text x="1109" y="815" text-anchor="middle" class="ratio">1.77x</text>
  <path d="M42 846H1238" class="row"/>

  <path d="M42 858H1238" stroke="#111"/>
  <text x="42" y="883" class="footer">Each row uses its own throughput scale; faster is right.</text>
  <text x="42" y="906" class="footer">Metal Qwen 3.5 2B: 20 paired runs · 17 Doppler wins · 3 TJS wins · exact tokens.</text>
  <text x="1238" y="906" text-anchor="end" class="footer mono">9 LINKED RESULTS</text>
</svg>
