<svg xmlns="http://www.w3.org/2000/svg" width="1280" height="640" viewBox="0 0 1280 640" role="img" aria-labelledby="title desc">
  <title id="title">Qwen 3.5 2B Apple M3 Metal paired decode evidence</title>
  <desc id="desc">Twenty interleaved 512-token decode comparisons show a 4.66 percent median Doppler lead over Transformers.js, exact token parity in every pair, and a paired 95 percent confidence interval entirely favoring Doppler.</desc>
  <defs>
    <style>
      text { fill: #111111; font-family: Inter, "Segoe UI", "Helvetica Neue", Arial, sans-serif; letter-spacing: 0; }
      .mono { font-family: SFMono-Regular, Menlo, Consolas, "Liberation Mono", monospace; }
      .eyebrow { font-size: 12px; font-weight: 800; fill: #0f766e; }
      .title { font-size: 30px; font-weight: 800; }
      .subtitle { font-size: 14px; font-weight: 600; fill: #495057; }
      .metric-label { font-size: 10px; font-weight: 800; fill: #495057; }
      .metric-value { font-size: 22px; font-weight: 800; }
      .section { font-size: 15px; font-weight: 800; }
      .detail { font-size: 11px; font-weight: 650; fill: #495057; }
      .bar-label { font-size: 12px; font-weight: 800; }
      .bar-value { font-size: 13px; font-weight: 800; fill: #ffffff; }
      .pair { font-size: 8.5px; font-weight: 700; fill: #495057; }
      .legend { font-size: 11px; font-weight: 700; fill: #495057; }
      .footer { font-size: 10.5px; font-weight: 650; fill: #495057; }
    </style>
  </defs>

  <rect width="1280" height="640" fill="#ffffff" />
  <rect x="18" y="18" width="1244" height="604" rx="6" fill="#ffffff" stroke="#111111" stroke-width="1.4" />

  <text x="42" y="53" class="eyebrow">APPLE M3 / METAL / LOCAL-COMPARABLE</text>
  <text x="42" y="88" class="title">Qwen 3.5 2B: Doppler wins the paired decode test</text>
  <text x="42" y="116" class="subtitle">20 adjacent engine pairs · p256 / d512 · deterministic greedy decode · RDRR vs ONNX q4f16</text>

  <rect x="42" y="139" width="220" height="70" rx="5" fill="#f3fbf8" stroke="#b7ded1" />
  <text x="58" y="162" class="metric-label">VALID PAIRED RUNS</text>
  <text x="58" y="193" class="metric-value" fill="#0f766e">20 / 20</text>

  <rect x="276" y="139" width="220" height="70" rx="5" fill="#f6f7ff" stroke="#d8ddf0" />
  <text x="292" y="162" class="metric-label">PAIR WINS</text>
  <text x="292" y="193" class="metric-value">17 Doppler · 3 TJS</text>

  <rect x="510" y="139" width="282" height="70" rx="5" fill="#fff9f3" stroke="#ead8bf" />
  <text x="526" y="162" class="metric-label">EXACT OUTPUT</text>
  <text x="526" y="193" class="metric-value">10,240 token IDs</text>

  <rect x="806" y="139" width="432" height="70" rx="5" fill="#f8fafc" stroke="#d9dee5" />
  <text x="822" y="162" class="metric-label">PAIRED 95% CI · DOPPLER MINUS TJS</text>
  <text x="822" y="193" class="metric-value" fill="#0f766e">-1.70 to -0.71 ms/token</text>

  <text x="42" y="244" class="section">Median decode throughput</text>
  <text x="1238" y="244" text-anchor="end" class="detail">4.66% MEDIAN DOPPLER LEAD</text>

  <text x="42" y="278" class="bar-label">Doppler</text>
  <rect x="166" y="260" width="900" height="25" rx="3" fill="#e4ebe9" />
  <rect x="166" y="260" width="900" height="25" rx="3" fill="#0f766e" />
  <text x="181" y="278" class="bar-value mono">33.86 tok/s</text>

  <text x="42" y="319" class="bar-label">Transformers.js</text>
  <rect x="166" y="301" width="900" height="25" rx="3" fill="#e6e8f4" />
  <rect x="166" y="301" width="871" height="25" rx="3" fill="#5c6fff" />
  <text x="181" y="319" class="bar-value mono">32.75 tok/s</text>

  <rect x="1090" y="260" width="148" height="66" rx="4" fill="#eaf7f4" stroke="#0f766e" />
  <text x="1164" y="282" text-anchor="middle" class="metric-label" fill="#0f766e">STATISTICAL RESULT</text>
  <text x="1164" y="310" text-anchor="middle" class="bar-label" fill="#0f766e">DOPPLER WIN</text>

  <line x1="42" y1="352" x2="1238" y2="352" stroke="#111111" />
  <text x="42" y="381" class="section">Per-pair throughput lead</text>
  <rect x="1030" y="365" width="12" height="12" rx="2" fill="#0f766e" />
  <text x="1050" y="376" class="legend">Doppler faster</text>
  <rect x="1142" y="365" width="12" height="12" rx="2" fill="#5c6fff" />
  <text x="1162" y="376" class="legend">TJS faster</text>

  <line x1="70" y1="521" x2="1210" y2="521" stroke="#111111" stroke-width="1.2" />
  <text x="54" y="525" text-anchor="end" class="pair">0%</text>

  <rect x="76" y="464" width="38" height="57" rx="2" fill="#0f766e" />
  <rect x="132" y="462" width="38" height="59" rx="2" fill="#0f766e" />
  <rect x="188" y="460" width="38" height="61" rx="2" fill="#0f766e" />
  <rect x="244" y="439" width="38" height="82" rx="2" fill="#0f766e" />
  <rect x="300" y="450" width="38" height="71" rx="2" fill="#0f766e" />
  <rect x="356" y="477" width="38" height="44" rx="2" fill="#0f766e" />
  <rect x="412" y="487" width="38" height="34" rx="2" fill="#0f766e" />
  <rect x="468" y="408" width="38" height="113" rx="2" fill="#0f766e" />
  <rect x="524" y="445" width="38" height="76" rx="2" fill="#0f766e" />
  <rect x="580" y="417" width="38" height="104" rx="2" fill="#0f766e" />
  <rect x="636" y="521" width="38" height="12" rx="2" fill="#5c6fff" />
  <rect x="692" y="401" width="38" height="120" rx="2" fill="#0f766e" />
  <rect x="748" y="521" width="38" height="28" rx="2" fill="#5c6fff" />
  <rect x="804" y="432" width="38" height="89" rx="2" fill="#0f766e" />
  <rect x="860" y="518" width="38" height="3" rx="1" fill="#0f766e" />
  <rect x="916" y="455" width="38" height="66" rx="2" fill="#0f766e" />
  <rect x="972" y="450" width="38" height="71" rx="2" fill="#0f766e" />
  <rect x="1028" y="443" width="38" height="78" rx="2" fill="#0f766e" />
  <rect x="1084" y="457" width="38" height="64" rx="2" fill="#0f766e" />
  <rect x="1140" y="521" width="38" height="34" rx="2" fill="#5c6fff" />

  <text x="95" y="571" text-anchor="middle" class="pair">01</text>
  <text x="151" y="571" text-anchor="middle" class="pair">02</text>
  <text x="207" y="571" text-anchor="middle" class="pair">03</text>
  <text x="263" y="571" text-anchor="middle" class="pair">04</text>
  <text x="319" y="571" text-anchor="middle" class="pair">05</text>
  <text x="375" y="571" text-anchor="middle" class="pair">06</text>
  <text x="431" y="571" text-anchor="middle" class="pair">07</text>
  <text x="487" y="571" text-anchor="middle" class="pair">08</text>
  <text x="543" y="571" text-anchor="middle" class="pair">09</text>
  <text x="599" y="571" text-anchor="middle" class="pair">10</text>
  <text x="655" y="571" text-anchor="middle" class="pair">11</text>
  <text x="711" y="571" text-anchor="middle" class="pair">12</text>
  <text x="767" y="571" text-anchor="middle" class="pair">13</text>
  <text x="823" y="571" text-anchor="middle" class="pair">14</text>
  <text x="879" y="571" text-anchor="middle" class="pair">15</text>
  <text x="935" y="571" text-anchor="middle" class="pair">16</text>
  <text x="991" y="571" text-anchor="middle" class="pair">17</text>
  <text x="1047" y="571" text-anchor="middle" class="pair">18</text>
  <text x="1103" y="571" text-anchor="middle" class="pair">19</text>
  <text x="1159" y="571" text-anchor="middle" class="pair">20</text>

  <line x1="42" y1="590" x2="1238" y2="590" stroke="#d9dee5" />
  <text x="42" y="611" class="footer">Bars show each pair's throughput difference relative to TJS. Thermal drift affected both engines; inference uses paired per-token time.</text>
  <text x="1238" y="611" text-anchor="end" class="footer mono">EXACT PARITY · LOCAL ARTIFACT</text>
</svg>
