<?xml version="1.0" encoding="UTF-8"?>
<svg xmlns="http://www.w3.org/2000/svg" width="1400" height="700" viewBox="0 0 1400 700" role="img" aria-labelledby="title desc">
  <title id="title">Doppler Architecture Overview</title>
  <desc id="desc">Two-column architecture: internal load-model orchestration on the left and public inference calls on the right, each with its own Config as Code node and a shared WebGPU lifecycle link.</desc>

  <defs>
  <style>
    text { fill: #f2f2f0; font-family: Inter, "Segoe UI", "Helvetica Neue", Arial, sans-serif; letter-spacing: 0; }
    .title { font: 700 32px Inter, "Segoe UI", "Helvetica Neue", Arial, sans-serif; }
    .section { font: 700 24px Inter, "Segoe UI", "Helvetica Neue", Arial, sans-serif; }
    .node-title { font: 700 20px Inter, "Segoe UI", "Helvetica Neue", Arial, sans-serif; }
    .node-text { font: 500 17px Inter, "Segoe UI", "Helvetica Neue", Arial, sans-serif; }
    .code-text { font: 500 17px SFMono-Regular, Menlo, Consolas, "Liberation Mono", monospace; }
    .edge-label { font: 500 15px Inter, "Segoe UI", "Helvetica Neue", Arial, sans-serif; fill: #9ca3af; }
    .column-left { fill: #0b0d0f; stroke: #fde68a; stroke-width: 1.75; }
    .column-right { fill: #0b0d0f; stroke: #93c5fd; stroke-width: 1.75; }
    .node { fill: #101317; stroke-width: 1.25; }
    .node-load { stroke: #fde68a; }
    .node-infer { stroke: #93c5fd; }
    .edge { stroke: #93c5fd; stroke-width: 1.75; fill: none; }
    .edge-dashed { stroke: #9ca3af; stroke-width: 1.75; fill: none; stroke-dasharray: 8 8; }
  </style>

  <marker id="arrow" markerWidth="12" markerHeight="12" refX="10" refY="6" orient="auto" markerUnits="strokeWidth">
    <path d="M 0 0 L 12 6 L 0 12 z" fill="#93c5fd" />
  </marker>

  <marker id="arrow-muted" markerWidth="12" markerHeight="12" refX="10" refY="6" orient="auto" markerUnits="strokeWidth">
    <path d="M 0 0 L 12 6 L 0 12 z" fill="#9ca3af" />
  </marker>
</defs>

  <rect x="0" y="0" width="1400" height="700" fill="#050607" />

  <text x="700" y="52" text-anchor="middle" class="title">Doppler Architecture Overview</text>

  <rect x="70" y="70" width="610" height="560" rx="4" class="column-left" />
  <rect x="720" y="70" width="610" height="560" rx="4" class="column-right" />

  <text x="375" y="120" text-anchor="middle" class="section">Load Model (one-time)</text>
  <text x="1025" y="120" text-anchor="middle" class="section">Inference (per-session)</text>

  <rect x="125" y="150" width="500" height="82" rx="4" class="node node-load" />
  <text x="375" y="184" text-anchor="middle" class="node-title">Config</text>
  <text x="375" y="210" text-anchor="middle" class="node-text">weight/attention dtypes, kernels</text>

  <rect x="125" y="270" width="500" height="72" rx="4" class="node node-load" />
  <text x="375" y="302" text-anchor="middle" class="node-title">Internal Call</text>
  <text x="375" y="326" text-anchor="middle" class="code-text">&#96;createInitializedPipeline() -> pipeline.loadModel()&#96;</text>

  <rect x="125" y="380" width="500" height="82" rx="4" class="node node-load" />
  <text x="375" y="414" text-anchor="middle" class="node-title">Model Loader</text>
  <text x="375" y="440" text-anchor="middle" class="node-text">shard cache + dequant + upload</text>

  <rect x="125" y="520" width="240" height="82" rx="4" class="node node-load" />
  <text x="245" y="554" text-anchor="middle" class="node-title">Storage</text>
  <text x="245" y="580" text-anchor="middle" class="node-text">RDRR / OPFS / Downloader</text>

  <rect x="385" y="520" width="240" height="82" rx="4" class="node node-load" />
  <text x="505" y="554" text-anchor="middle" class="node-title">WebGPU</text>
  <text x="505" y="580" text-anchor="middle" class="node-text">upload + buffers</text>

  <path d="M 375 232 L 375 270" class="edge" marker-end="url(#arrow)" />
  <path d="M 375 342 L 375 380" class="edge" marker-end="url(#arrow)" />

  <path d="M 375 462 L 375 488 L 245 488 L 245 520" class="edge" marker-end="url(#arrow)" />
  <path d="M 505 462 L 505 520" class="edge" marker-end="url(#arrow)" />

  <rect x="775" y="150" width="500" height="82" rx="4" class="node node-infer" />
  <text x="1025" y="184" text-anchor="middle" class="node-title">Config</text>
  <text x="1025" y="210" text-anchor="middle" class="node-text">attention mechanism, batching, kernel overrides</text>

  <rect x="775" y="270" width="500" height="72" rx="4" class="node node-infer" />
  <text x="1025" y="302" text-anchor="middle" class="node-title">Public API Call</text>
  <text x="1025" y="326" text-anchor="middle" class="code-text">&#96;generate() / dopplerChat()&#96;</text>

  <rect x="775" y="380" width="500" height="104" rx="4" class="node node-infer" />
  <text x="1025" y="415" text-anchor="middle" class="node-title">Inference Pipeline</text>
  <text x="1025" y="442" text-anchor="middle" class="node-text">tokenizer -&gt; KV cache -&gt; attention/FFN -&gt; sampling</text>

  <rect x="775" y="530" width="500" height="82" rx="4" class="node node-infer" />
  <text x="1025" y="564" text-anchor="middle" class="node-title">WebGPU</text>
  <text x="1025" y="590" text-anchor="middle" class="node-text">WGSL kernels + buffer pools</text>

  <path d="M 1025 232 L 1025 270" class="edge" marker-end="url(#arrow)" />
  <path d="M 1025 342 L 1025 380" class="edge" marker-end="url(#arrow)" />
  <path d="M 1025 484 L 1025 530" class="edge" marker-end="url(#arrow)" />

  <path d="M 625 561 L 775 561" class="edge-dashed" marker-end="url(#arrow-muted)" />
  <text x="700" y="545" text-anchor="middle" class="edge-label">shared WebGPU lifecycle</text>
</svg>
